<?xml version="1.0"?>
<svg width="857.21359" height="89.812964" xmlns="http://www.w3.org/2000/svg" xmlns:svg="http://www.w3.org/2000/svg" preserveAspectRatio="xMidYMid meet" version="1.0">
 <defs>
  <g id="svg_1"/>
 </defs>
 <g class="layer">
  <title>Layer 1</title>
  <g fill="#d9bc27" id="svg_2" transform="matrix(1 0 0 1 0 0)">
   <g id="svg_3" transform="translate(-3.3195 102.85)">
    <g id="svg_4">
     <path d="m81.73,-74.08c0,10.31 -4.3,17.75 -12.92,22.31c-8.6,4.57 -19.68,5.82 -33.25,3.75l0,17.38c0,3.81 1.09,6.41 3.27,7.8c2.19,1.38 5.58,2.36 10.17,2.92c0.24,0 0.36,0.34 0.36,1.01c0,0.67 -0.1,1.32 -0.3,1.96c-0.2,0.63 -0.45,0.95 -0.76,0.95l-35.35,0c-0.32,0 -0.6,-0.32 -0.84,-0.95c-0.23,-0.64 -0.34,-1.29 -0.34,-1.96c0,-0.67 0.15,-1.01 0.46,-1.01c3.25,-0.48 5.73,-1.49 7.44,-3.03c1.71,-1.55 2.56,-4.12 2.56,-7.69l0,-53.42c0,-3.57 -0.83,-6.19 -2.5,-7.86c-1.66,-1.67 -4.16,-2.94 -7.5,-3.81c-0.48,-0.16 -0.62,-0.85 -0.42,-2.08c0.2,-1.23 0.58,-1.8 1.14,-1.72c3.73,0.47 8.29,0.7 13.69,0.7c3.01,0 6.93,-0.11 11.77,-0.34c4.84,-0.24 8.17,-0.36 10,-0.36c4.68,0 8.97,0.46 12.86,1.37c3.88,0.91 7.39,2.34 10.53,4.28c3.13,1.94 5.57,4.6 7.31,7.97c1.75,3.37 2.62,7.31 2.62,11.83zm-36.06,-19.51c-3.8,0 -6.44,0.71 -7.9,2.15c-1.47,1.43 -2.21,3.89 -2.21,7.38l0,30.34c10.55,1.5 18.49,0.89 23.8,-1.84c5.31,-2.74 7.97,-7.99 7.97,-15.77c0,-7.14 -2.03,-12.64 -6.08,-16.48c-4.04,-3.85 -9.23,-5.78 -15.58,-5.78zm0,0" id="svg_5"/>
    </g>
   </g>
  </g>
  <g fill="#d9bc27" id="svg_6" transform="matrix(1 0 0 1 0 0)">
   <g id="svg_7" transform="translate(67.7182 102.85)">
    <g id="svg_8">
     <path d="m105.03,-19.86c0.48,0 0.7,0.52 0.66,1.55c-0.05,1.03 -0.26,1.62 -0.66,1.78c-2.53,0.8 -5.15,1.26 -7.84,1.37c-2.7,0.12 -5.56,-0.52 -8.58,-1.9c-3.01,-1.39 -5.59,-3.51 -7.73,-6.36l-18.44,-23.69c-2.31,-3.01 -5,-5.03 -8.1,-6.06c-3.09,-1.03 -7.02,-1.59 -11.78,-1.67l0,23.2c0,3.81 1.09,6.41 3.27,7.8c2.19,1.38 5.58,2.36 10.17,2.92c0.24,0 0.36,0.34 0.36,1.01c0,0.67 -0.1,1.32 -0.3,1.96c-0.2,0.63 -0.45,0.95 -0.76,0.95l-35.35,0c-0.32,0 -0.6,-0.32 -0.84,-0.95c-0.23,-0.64 -0.34,-1.29 -0.34,-1.96c0,-0.67 0.15,-1.01 0.46,-1.01c3.25,-0.48 5.73,-1.49 7.44,-3.03c1.71,-1.55 2.56,-4.12 2.56,-7.69l0,-53.42c0,-3.57 -0.83,-6.19 -2.5,-7.86c-1.66,-1.67 -4.16,-2.94 -7.5,-3.81c-0.48,-0.16 -0.62,-0.85 -0.42,-2.08c0.2,-1.23 0.58,-1.8 1.14,-1.72c3.73,0.47 8.29,0.7 13.69,0.7c3.09,0 7.1,-0.11 12.02,-0.34c4.91,-0.24 8.2,-0.36 9.87,-0.36c9.13,0 16.36,1.89 21.72,5.65c5.35,3.77 8.03,9.22 8.03,16.36c0,6.42 -2.15,11.5 -6.44,15.22c-4.28,3.73 -9.11,5.76 -14.5,6.08l0,0.59c2.29,0 4.39,0.62 6.3,1.85c1.91,1.23 4.13,3.43 6.67,6.61l17.97,22.48c3.1,3.89 6.35,5.83 9.75,5.83zm-58.9,-40.22c9.2,0 15.69,-1.06 19.45,-3.2c3.77,-2.15 5.65,-6.19 5.65,-12.14c0,-6.12 -1.78,-10.84 -5.35,-14.17c-3.57,-3.34 -8.17,-5 -13.8,-5c-3.49,0 -5.95,0.73 -7.38,2.2c-1.43,1.47 -2.14,3.91 -2.14,7.33l0,24.98l3.57,0zm0,0" id="svg_9"/>
    </g>
   </g>
  </g>
  <g fill="#d9bc27" id="svg_10" transform="matrix(1 0 0 1 0 0)">
   <g id="svg_11" transform="translate(151.488 102.85)">
    <g id="svg_12">
     <path d="m61.39,-16.09c-12.37,0 -22.61,-4.09 -30.7,-12.25c-8.1,-8.18 -12.14,-18.46 -12.14,-30.83c0,-12.3 3.98,-22.71 11.95,-31.24c7.98,-8.53 18.35,-12.79 31.13,-12.79c12.37,0 22.6,4.07 30.7,12.2c8.09,8.12 12.14,18.37 12.14,30.75c0,12.37 -3.99,22.83 -11.97,31.36c-7.97,8.53 -18.34,12.8 -31.11,12.8zm4.52,-7.74c2.93,0 5.79,-0.49 8.56,-1.48c2.78,-1 5.48,-2.59 8.09,-4.77c2.63,-2.17 4.73,-5.3 6.32,-9.39c1.58,-4.09 2.37,-8.87 2.37,-14.34c0,-11.82 -3.43,-21.72 -10.3,-29.69c-6.85,-7.98 -14.81,-11.97 -23.86,-11.97c-2.93,0 -5.76,0.5 -8.5,1.49c-2.74,0.99 -5.4,2.55 -7.98,4.7c-2.57,2.15 -4.66,5.26 -6.25,9.34c-1.59,4.09 -2.38,8.83 -2.38,14.22c0,11.9 3.41,21.86 10.24,29.88c6.82,8.01 14.72,12.01 23.69,12.01zm0,0" id="svg_13"/>
    </g>
   </g>
  </g>
  <g fill="#d9bc27" id="svg_14" transform="matrix(1 0 0 1 0 0)">
   <g id="svg_15" transform="translate(240.851 102.85)">
    <g id="svg_16">
     <path d="m21.17,-16.77c-0.56,0.09 -0.94,-0.52 -1.14,-1.82c-0.2,-1.32 -0.06,-2.05 0.42,-2.22c2.07,-0.55 3.43,-0.91 4.1,-1.07c0.67,-0.15 1.72,-0.55 3.15,-1.18c1.44,-0.64 2.39,-1.31 2.86,-2.02c0.48,-0.72 0.98,-1.69 1.49,-2.92c0.52,-1.24 0.78,-2.73 0.78,-4.47l0,-53.08c0,-3.49 -0.9,-6.02 -2.69,-7.61c-1.78,-1.59 -4.26,-2.74 -7.42,-3.45c-0.48,-0.08 -0.62,-0.77 -0.42,-2.08c0.19,-1.31 0.53,-1.92 1.01,-1.84c4.99,0.47 15.23,0.7 30.71,0.7c3.16,0 6.33,-0.03 9.5,-0.11c3.17,-0.08 6.57,-0.18 10.18,-0.29c3.62,-0.13 6.49,-0.23 8.63,-0.3c1.35,0 2.16,0.44 2.44,1.31c0.28,0.87 0.22,1.98 -0.18,3.33l-2.86,11.17c-0.15,0.88 -0.77,1.31 -1.84,1.31c-1.07,0 -1.73,-0.43 -1.97,-1.31c-0.63,-2.13 -1.54,-3.82 -2.73,-5.05c-1.19,-1.22 -3.21,-2.23 -6.06,-3.03c-2.86,-0.8 -6.71,-1.2 -11.55,-1.2c-4.37,0 -7.36,0.62 -8.99,1.86c-1.62,1.23 -2.43,3.47 -2.43,6.72l0,20.7c0,1.43 0.31,2.4 0.95,2.92c0.63,0.51 1.62,0.77 2.97,0.77l2.5,0c11.51,0 19.24,-1.82 23.2,-5.47c0.63,-0.63 1.37,-0.81 2.2,-0.53c0.84,0.27 1.01,0.92 0.54,1.95l-6.89,15c-0.49,0.95 -1.08,1.42 -1.8,1.42c-0.71,0 -1.42,-0.43 -2.14,-1.31c-2.53,-3.56 -7.89,-5.34 -16.06,-5.34l-1.55,0c-1.35,0 -2.34,0.26 -2.97,0.78c-0.64,0.51 -0.95,1.48 -0.95,2.9l0,19.16c0,3.89 1,6.49 3.03,7.8c2.02,1.3 5.72,2.51 11.12,3.62c0.48,0.09 0.84,0.17 1.08,0.24c0.55,0.17 0.71,0.9 0.47,2.22c-0.24,1.3 -0.64,1.91 -1.19,1.82c-6.58,-0.46 -13.65,-0.7 -21.19,-0.7c-7.77,0 -13.87,0.24 -18.31,0.7zm0,0" id="svg_17"/>
    </g>
   </g>
  </g>
  <g fill="#d9bc27" id="svg_18" transform="matrix(1 0 0 1 0 0)">
   <g id="svg_19" transform="translate(304.511 102.85)">
    <g id="svg_20">
     <path d="m69.39,-15.09c-12.37,0 -22.61,-4.09 -30.7,-12.25c-8.1,-8.18 -12.14,-18.46 -12.14,-30.83c0,-12.3 3.98,-22.71 11.95,-31.24c7.98,-8.53 18.35,-12.79 31.13,-12.79c12.37,0 22.6,4.07 30.7,12.2c8.09,8.12 12.14,18.37 12.14,30.75c0,12.37 -3.99,22.83 -11.97,31.36c-7.97,8.53 -18.34,12.8 -31.11,12.8zm4.52,-7.74c2.93,0 5.79,-0.49 8.56,-1.48c2.78,-1 5.48,-2.59 8.09,-4.77c2.63,-2.17 4.73,-5.3 6.32,-9.39c1.58,-4.09 2.37,-8.87 2.37,-14.34c0,-11.82 -3.43,-21.72 -10.3,-29.69c-6.85,-7.98 -14.81,-11.97 -23.86,-11.97c-2.93,0 -5.76,0.5 -8.5,1.49c-2.74,0.99 -5.4,2.55 -7.98,4.7c-2.57,2.15 -4.66,5.26 -6.25,9.34c-1.59,4.09 -2.38,8.83 -2.38,14.22c0,11.9 3.41,21.86 10.24,29.88c6.82,8.01 14.72,12.01 23.69,12.01zm0,0" id="svg_21"/>
    </g>
   </g>
  </g>
  <g fill="#d9bc27" id="svg_22">
   <g id="svg_23" transform="translate(393.873 102.85)">
    <g id="svg_24">
     <path d="m95.73,-75.08c0,10.31 -4.3,17.75 -12.92,22.31c-8.6,4.57 -19.68,5.82 -33.25,3.75l0,17.38c0,3.81 1.09,6.41 3.27,7.8c2.19,1.38 5.58,2.36 10.17,2.92c0.24,0 0.36,0.34 0.36,1.01c0,0.67 -0.1,1.32 -0.3,1.96c-0.2,0.63 -0.45,0.95 -0.76,0.95l-35.35,0c-0.32,0 -0.6,-0.32 -0.84,-0.95c-0.23,-0.64 -0.34,-1.29 -0.34,-1.96c0,-0.67 0.15,-1.01 0.46,-1.01c3.25,-0.48 5.73,-1.49 7.44,-3.03c1.71,-1.55 2.56,-4.12 2.56,-7.69l0,-53.42c0,-3.57 -0.83,-6.19 -2.5,-7.86c-1.66,-1.67 -4.16,-2.94 -7.5,-3.81c-0.48,-0.16 -0.62,-0.85 -0.42,-2.08c0.2,-1.23 0.58,-1.8 1.14,-1.72c3.73,0.47 8.29,0.7 13.69,0.7c3.01,0 6.93,-0.11 11.77,-0.34c4.84,-0.24 8.17,-0.36 10,-0.36c4.68,0 8.97,0.46 12.86,1.37c3.88,0.91 7.39,2.34 10.53,4.28c3.13,1.94 5.57,4.6 7.31,7.97c1.75,3.37 2.62,7.31 2.62,11.83zm-36.06,-19.51c-3.8,0 -6.44,0.71 -7.9,2.15c-1.47,1.43 -2.21,3.89 -2.21,7.38l0,30.34c10.55,1.5 18.49,0.89 23.8,-1.84c5.31,-2.74 7.97,-7.99 7.97,-15.77c0,-7.14 -2.03,-12.64 -6.08,-16.48c-4.04,-3.85 -9.23,-5.78 -15.58,-5.78zm0,0" id="svg_25"/>
    </g>
   </g>
  </g>
  <g fill="#d9bc27" id="svg_26">
   <g id="svg_27" transform="translate(464.911 102.85)">
    <g id="svg_28">
     <path d="m31.95,-17c-0.32,0 -0.6,-0.32 -0.84,-0.95c-0.23,-0.64 -0.34,-1.29 -0.34,-1.96c0,-0.67 0.15,-1.01 0.46,-1.01c3.25,-0.48 5.73,-1.49 7.44,-3.03c1.71,-1.55 2.56,-4.12 2.56,-7.69l0,-54.14c0,-3.49 -0.85,-6.02 -2.56,-7.61c-1.71,-1.59 -4.19,-2.63 -7.44,-3.09c-0.31,0 -0.46,-0.32 -0.46,-0.96c0,-0.63 0.11,-1.27 0.34,-1.9c0.24,-0.64 0.52,-0.96 0.84,-0.96l31.77,0c0.32,0 0.6,0.32 0.83,0.96c0.24,0.63 0.36,1.27 0.36,1.9c0,0.64 -0.16,0.96 -0.47,0.96c-3.1,0.39 -5.52,1.32 -7.27,2.79c-1.74,1.46 -2.61,4.1 -2.61,7.91l0,54.14c0,3.81 0.87,6.45 2.61,7.92c1.75,1.47 4.17,2.4 7.27,2.8c0.31,0 0.47,0.34 0.47,1.01c0,0.67 -0.12,1.32 -0.36,1.96c-0.23,0.63 -0.51,0.95 -0.83,0.95l-31.77,0zm0,0" id="svg_29"/>
    </g>
   </g>
  </g>
  <g fill="#d9bc27" id="svg_30" transform="matrix(1 0 0 1 0 0)">
   <g id="svg_31" transform="translate(498.942 102.85)">
    <g id="svg_32">
     <path d="m114.42,-15.81c-1.51,0 -2.94,-0.76 -4.28,-2.27l-56.89,-60.33l0,46.53c0,3.65 0.89,6.15 2.67,7.5c1.79,1.35 4.67,2.5 8.64,3.46c0.47,0.07 0.6,0.74 0.41,2.01c-0.2,1.28 -0.58,1.91 -1.13,1.91l-27.61,0c-0.48,0 -0.84,-0.61 -1.07,-1.84c-0.23,-1.23 -0.07,-1.93 0.48,-2.08c1.43,-0.4 2.46,-0.71 3.09,-0.96c0.64,-0.23 1.49,-0.63 2.57,-1.18c1.07,-0.57 1.84,-1.18 2.31,-1.85c0.48,-0.67 0.91,-1.61 1.31,-2.79c0.4,-1.2 0.6,-2.59 0.6,-4.18l0,-46.64c0,-7.38 -1.55,-12.97 -4.64,-16.78c-1.28,-1.59 -1.91,-2.42 -1.91,-2.5c0,-0.63 0.19,-1.2 0.59,-1.72c0.4,-0.52 0.96,-0.78 1.67,-0.78l8.57,0c1.27,0 2.22,0.36 2.86,1.07l55.68,59.75l0,-46.07c0,-1.66 -0.24,-3.09 -0.71,-4.28c-0.47,-1.19 -0.93,-2.1 -1.36,-2.73c-0.44,-0.64 -1.34,-1.25 -2.69,-1.85c-1.35,-0.59 -2.29,-0.97 -2.85,-1.12c-0.55,-0.17 -1.74,-0.49 -3.57,-0.95c-0.47,-0.17 -0.61,-0.85 -0.41,-2.04c0.2,-1.18 0.57,-1.78 1.13,-1.78l27.48,0c0.56,0 0.94,0.6 1.14,1.78c0.2,1.19 0.05,1.87 -0.42,2.04c-1.91,0.55 -3.22,0.96 -3.94,1.25c-0.71,0.27 -1.66,0.8 -2.84,1.59c-1.19,0.79 -2,1.84 -2.44,3.16c-0.44,1.31 -0.66,2.96 -0.66,4.93l0,46.77c0,10.31 0.48,17.21 1.43,20.7c0.23,0.81 0.01,1.38 -0.66,1.74c-0.67,0.35 -1.52,0.53 -2.55,0.53zm0,0" id="svg_33"/>
    </g>
   </g>
  </g>
  <g fill="#d9bc27" id="svg_34" transform="matrix(1 0 0 1 0 0)">
   <g id="svg_35" transform="translate(589.614 102.85)">
    <g id="svg_36">
     <path d="m37.95,-17c-0.32,0 -0.6,-0.32 -0.84,-0.95c-0.23,-0.64 -0.34,-1.29 -0.34,-1.96c0,-0.67 0.15,-1.01 0.46,-1.01c3.25,-0.48 5.73,-1.49 7.44,-3.03c1.71,-1.55 2.56,-4.12 2.56,-7.69l0,-54.14c0,-3.49 -0.85,-6.02 -2.56,-7.61c-1.71,-1.59 -4.19,-2.63 -7.44,-3.09c-0.31,0 -0.46,-0.32 -0.46,-0.96c0,-0.63 0.11,-1.27 0.34,-1.9c0.24,-0.64 0.52,-0.96 0.84,-0.96l31.77,0c0.32,0 0.6,0.32 0.83,0.96c0.24,0.63 0.36,1.27 0.36,1.9c0,0.64 -0.16,0.96 -0.47,0.96c-3.1,0.39 -5.52,1.32 -7.27,2.79c-1.74,1.46 -2.61,4.1 -2.61,7.91l0,54.14c0,3.81 0.87,6.45 2.61,7.92c1.75,1.47 4.17,2.4 7.27,2.8c0.31,0 0.47,0.34 0.47,1.01c0,0.67 -0.12,1.32 -0.36,1.96c-0.23,0.63 -0.51,0.95 -0.83,0.95l-31.77,0zm0,0" id="svg_37"/>
    </g>
   </g>
  </g>
  <g fill="#d9bc27" id="svg_38" transform="matrix(1 0 0 1 0 0)">
   <g id="svg_39" transform="translate(623.645 102.85)">
    <g id="svg_40">
     <path d="m85.39,-15.09c-12.37,0 -22.61,-4.09 -30.7,-12.25c-8.1,-8.18 -12.14,-18.46 -12.14,-30.83c0,-12.3 3.98,-22.71 11.95,-31.24c7.98,-8.53 18.35,-12.79 31.13,-12.79c12.37,0 22.6,4.07 30.7,12.2c8.09,8.12 12.14,18.37 12.14,30.75c0,12.37 -3.99,22.83 -11.97,31.36c-7.97,8.53 -18.34,12.8 -31.11,12.8zm4.52,-7.74c2.93,0 5.79,-0.49 8.56,-1.48c2.78,-1 5.48,-2.59 8.09,-4.77c2.63,-2.17 4.73,-5.3 6.32,-9.39c1.58,-4.09 2.37,-8.87 2.37,-14.34c0,-11.82 -3.43,-21.72 -10.3,-29.69c-6.85,-7.98 -14.81,-11.97 -23.86,-11.97c-2.93,0 -5.76,0.5 -8.5,1.49c-2.74,0.99 -5.4,2.55 -7.98,4.7c-2.57,2.15 -4.66,5.26 -6.25,9.34c-1.59,4.09 -2.38,8.83 -2.38,14.22c0,11.9 3.41,21.86 10.24,29.88c6.82,8.01 14.72,12.01 23.69,12.01zm0,0" id="svg_41"/>
    </g>
   </g>
  </g>
  <g fill="#d9bc27" id="svg_42" transform="matrix(1 0 0 1 0 0)">
   <g id="svg_43" transform="translate(713.008 102.85)">
    <g id="svg_44">
     <path d="m128.42,-15.81c-1.51,0 -2.94,-0.76 -4.28,-2.27l-56.89,-60.33l0,46.53c0,3.65 0.89,6.15 2.67,7.5c1.79,1.35 4.67,2.5 8.64,3.46c0.47,0.07 0.6,0.74 0.41,2.01c-0.2,1.28 -0.58,1.91 -1.13,1.91l-27.61,0c-0.48,0 -0.84,-0.61 -1.07,-1.84c-0.23,-1.23 -0.07,-1.93 0.48,-2.08c1.43,-0.4 2.46,-0.71 3.09,-0.96c0.64,-0.23 1.49,-0.63 2.57,-1.18c1.07,-0.57 1.84,-1.18 2.31,-1.85c0.48,-0.67 0.91,-1.61 1.31,-2.79c0.4,-1.2 0.6,-2.59 0.6,-4.18l0,-46.64c0,-7.38 -1.55,-12.97 -4.64,-16.78c-1.28,-1.59 -1.91,-2.42 -1.91,-2.5c0,-0.63 0.19,-1.2 0.59,-1.72c0.4,-0.52 0.96,-0.78 1.67,-0.78l8.57,0c1.27,0 2.22,0.36 2.86,1.07l55.68,59.75l0,-46.07c0,-1.66 -0.24,-3.09 -0.71,-4.28c-0.47,-1.19 -0.93,-2.1 -1.36,-2.73c-0.44,-0.64 -1.34,-1.25 -2.69,-1.85c-1.35,-0.59 -2.29,-0.97 -2.85,-1.12c-0.55,-0.17 -1.74,-0.49 -3.57,-0.95c-0.47,-0.17 -0.61,-0.85 -0.41,-2.04c0.2,-1.18 0.57,-1.78 1.13,-1.78l27.48,0c0.56,0 0.94,0.6 1.14,1.78c0.2,1.19 0.05,1.87 -0.42,2.04c-1.91,0.55 -3.22,0.96 -3.94,1.25c-0.71,0.27 -1.66,0.8 -2.84,1.59c-1.19,0.79 -2,1.84 -2.44,3.16c-0.44,1.31 -0.66,2.96 -0.66,4.93l0,46.77c0,10.31 0.48,17.21 1.43,20.7c0.23,0.81 0.01,1.38 -0.66,1.74c-0.67,0.35 -1.52,0.53 -2.55,0.53zm0,0" id="svg_45"/>
    </g>
   </g>
  </g>
 </g>
</svg>