<?xml version="1.0" encoding="UTF-8" standalone="no"?>
<svg
   version="1.0"
   width="1216.4554"
   height="409.20001"
   viewBox="0 0 1216.4554 409.20001"
   preserveAspectRatio="xMidYMid"
   id="svg48"
   sodipodi:docname="Logo.svg"
   inkscape:version="1.3 (0e150ed6c4, 2023-07-21)"
   xmlns:inkscape="http://www.inkscape.org/namespaces/inkscape"
   xmlns:sodipodi="http://sodipodi.sourceforge.net/DTD/sodipodi-0.dtd"
   xmlns="http://www.w3.org/2000/svg"
   xmlns:svg="http://www.w3.org/2000/svg">
  <defs
     id="defs48" />
  <sodipodi:namedview
     id="namedview48"
     pagecolor="#ffffff"
     bordercolor="#999999"
     borderopacity="1"
     inkscape:showpageshadow="2"
     inkscape:pageopacity="0"
     inkscape:pagecheckerboard="0"
     inkscape:deskcolor="#d1d1d1"
     inkscape:zoom="0.5"
     inkscape:cx="693"
     inkscape:cy="177"
     inkscape:window-width="1366"
     inkscape:window-height="705"
     inkscape:window-x="-8"
     inkscape:window-y="-8"
     inkscape:window-maximized="1"
     inkscape:current-layer="svg48" />
  <g
     id="g1"
     style="fill:#d9bc27;fill-opacity:1">
    <path
       d="m 25.512342,407.2 c -2.4,-2.4 -2.5,-4.8 -0.4,-7.8 l 1.5,-2.2 h 122.899998 122.9 l 1.5,2.2 c 2.1,3 2,5.4 -0.4,7.8 -2,2 -3.3,2 -124,2 -120.699998,0 -121.999998,0 -123.999998,-2 z"
       id="path33"
       style="fill:#d9bc27;fill-opacity:1" />
    <path
       d="m 35.812342,391.2 c -1.8,-1 -3.9,-3 -4.8,-4.4 -2.4,-3.6 -31.70000011,-142.2 -31.00000011,-146.2 0.3,-1.8 1.50000001,-4.4 2.60000001,-5.8 3.7,-4.6 6.9,-5.6 18.7000001,-5.6 h 10.9 l 3.3,-9.2 c 4.3,-12.5 9.2,-21.1 16.2,-28.4 10.1,-10.6 18.1,-13.6 40.8,-15.4 10.899998,-0.9 13.499998,-0.8 13.899998,0.2 0.2,0.7 2.1,2.9 4.2,5 7.4,7.1 24.5,11.3 42.4,10.6 18.6,-0.9 34.1,-6.4 38.3,-13.8 l 1.7,-2.9 9,0.5 c 14.2,0.9 26.4,3.2 33.1,6.3 11.8,5.5 21.9,19 28.5,37.9 l 3.2,9.2 h 11.1 c 9.3,0 11.6,0.3 14.4,2 3.6,2.2 7.2,7.4 7.2,10.4 0,4.2 -29.2,140.3 -30.8,143.6 -0.9,1.9 -3.2,4.5 -5.1,5.7 l -3.4,2.3 h -110.6 c -107.899998,0 -110.699998,-0.1 -113.799998,-2 z m 218.999998,-3.7 c 4.7,-0.7 9.3,-5.1 10.7,-10.1 0.8,-3 26.8,-122.2 28.6,-131.3 0.7,-3.7 -4.4,-9.5 -9.6,-10.9 -2.5,-0.7 -48.5,-0.9 -137.3,-0.8 -133.099998,0.3 -133.599998,0.3 -136.299998,2.4 -1.5000001,1.1 -3.6000001,3.2 -4.7000001,4.5 -1.8,2.6 -1.8,2.8 12.3000001,67.5 7.7,35.7 14.3,66.1 14.6,67.7 0.7,3.6 5,8.6 8.9,10.3 2.4,1.1 22.6,1.3 105.999998,1.3 56.7,0.1 104.7,-0.2 106.8,-0.6 z"
       id="path34"
       style="fill:#d9bc27;fill-opacity:1" />
    <path
       d="m 142.71234,322.5 c -4.2,-1.7 -5.6,-13.2 -2.1,-17.7 1.9,-2.4 2.7,-2.6 8.9,-2.6 6.2,0 7,0.2 8.9,2.6 3.2,4 2.9,12.6 -0.4,15.9 -2,2.1 -3.3,2.5 -8.2,2.4 -3.2,0 -6.4,-0.3 -7.1,-0.6 z"
       id="path35"
       style="fill:#d9bc27;fill-opacity:1" />
    <path
       d="m 137.01234,172.4 c -13.5,-4.8 -27.3,-19.4 -36,-38.2 -1.599998,-3.6 -4.199998,-7.5 -5.699998,-8.8 -6.4,-5.5 -9.7,-24.8 -5.2,-30.9 1.3,-1.8 2.5,-5.9 3.3,-11.3 0.7,-4.7 1.7,-10.2 2.2,-12.2 0.5,-2 1.2,-9.1 1.4,-15.7 l 0.5,-12 -6.1,-3.6 c -3.3,-1.9 -6.2,-3.5 -6.5,-3.5 -1.1,0 -0.2,2.6 1.7,4.6 2.1,2.2 2.1,2.5 0.6,4.8 -1.5,2.2 -1.5,4.2 -0.1,22.6 1.4,18.7 1.4,20.6 -0.2,25.4 -0.9,2.8 -2,5.5 -2.4,5.9 -0.3,0.4 -1.5,-1.9 -2.5,-5.2 -1.7,-5.6 -1.7,-7.1 -0.3,-26.3 1.3,-17.5 1.3,-20.5 0,-22 -1.4,-1.7 -0.8,-5.8 0.9,-5.8 2,0 0.8,-5 -1.6,-6.6 -1.4,-0.9 -2.5,-2.2 -2.5,-2.9 0,-0.7 15.3,-7.6 35.299998,-16 l 35.3,-14.7 34.9,14.6 c 19.1,8 35.2,14.9 35.7,15.4 1.3,1.3 0,2.4 -12.1,9.4 l -10.3,6 0.7,5.7 c 0.4,3 1.6,7.3 2.6,9.3 2.8,5.5 4.9,15.3 4.9,23.3 0,5.1 0.6,8.2 2,11 1.2,2.4 2,5.9 2,9 0,8.5 -4,20.3 -7.5,22.2 -0.8,0.5 -3.3,4.6 -5.5,9.1 -5.5,11.5 -10.6,18.7 -18.8,26.3 -9.7,9.3 -16.3,12.3 -27.2,12.7 -6.2,0.2 -9.9,-0.3 -13.5,-1.6 z m 21.9,-14.5 c 9.9,-4.6 19.4,-15.5 26,-29.9 2.3,-5.1 4.1,-7.7 5.5,-8.1 2.6,-0.6 5.4,-6.8 5.5,-12.2 0.1,-3.4 -0.2,-4 -2.1,-4.3 -1.6,-0.2 -2.6,-1.6 -3.9,-5.5 -2.9,-8.9 -4.1,-10.7 -7.3,-10.7 -1.6,0 -5.2,-1.1 -7.9,-2.5 -5.8,-2.9 -8.3,-3.1 -16.6,-0.9 -6.8,1.8 -14.6,1.5 -27.3,-1.2 -7.2,-1.5 -7.6,-1.4 -11.9,0.6 -5.2,2.5 -9.5,8.3 -11.3,15.2 -1,3.5 -1.9,4.8 -3.5,5 -4.899998,0.7 -1.2,15.9 4.2,16.6 1.2,0.2 2.2,0.9 2.2,1.7 0,2.7 8.4,17.9 12.9,23.3 5.2,6.3 13.6,12.5 19.7,14.8 4.8,1.7 8.9,1.2 15.8,-1.9 z"
       id="path46"
       style="fill:#d9bc27;fill-opacity:1" />
    <path
       d="m 39.012342,389.8 c -4.2,-1.8 -8.3,-6.9 -9.1,-11.4 -0.4,-2 -7,-32.9 -14.9,-68.7 C 0.01234189,240.6 0.11234189,241.5 4.7123419,236.4 c 5.1,-5.5 -2,-5.2 143.9999981,-5.2 88.8,0 136.6,0.4 139,1 2.1,0.6 5,2.6 6.8,4.7 3,3.4 3.2,4 2.7,9.2 -0.4,4.9 -26.1,124.5 -28.7,134.3 -1.4,5 -6,9.4 -10.7,10.1 -2.1,0.4 -51.5,0.7 -109.8,0.6 -85.899998,0 -106.599998,-0.2 -108.999998,-1.3 z M 155.01234,317.7 c 3.1,-3 3.2,-6.4 0.4,-9.9 -4.5,-5.7 -15.2,-1 -13.5,5.8 1.6,6.5 8.6,8.7 13.1,4.1 z"
       id="path47"
       style="fill:none;fill-opacity:1" />
    <path
       d="m 140.11234,162.7 c -6.1,-2.1 -14.4,-8.4 -19.7,-14.7 -4.5,-5.4 -12.9,-20.6 -12.9,-23.3 0,-0.8 -1,-1.5 -2.2,-1.7 -3.6,-0.5 -6.799998,-7.9 -6.799998,-15.5 0,-5.1 0.3,-6.4 1.899998,-7.2 1,-0.6 2.1,-0.8 2.3,-0.5 0.3,0.2 1.1,-1.7 1.8,-4.3 2,-7.1 6.2,-12.7 11.5,-15.3 5.1,-2.5 7.6,-2.4 24.2,0.4 8.8,1.6 9.6,1.6 17,-0.3 9,-2.2 14.2,-1.8 21.5,1.9 5.2,2.6 6.6,2.3 4.8,-0.9 -0.7,-1.4 -0.7,-2.1 0,-2.1 1.9,0 6.9,8.1 9,14.6 1.5,4.3 2.6,6.4 3.5,6 2.3,-0.8 3.5,1.7 3.4,7.4 0,7 -2.7,14.2 -5.7,15.5 -1.5,0.7 -3.8,4.1 -6.7,10 -4.8,10 -11.8,19.2 -18.2,24.1 -8.7,6.6 -20.1,9 -28.7,5.9 z"
       id="path48"
       style="fill:none;fill-opacity:1" />
  </g>
  <path
     style="font-size:32px;line-height:0;font-family:Colville;-inkscape-font-specification:Colville;letter-spacing:11.06px"
     d="m 363.27401,288.58448 h 2.464 c 2.592,0 4.448,-0.64 5.632,-1.92 1.184,-1.312 1.792,-2.976 1.792,-5.024 0,-4.48 -2.784,-6.848 -7.488,-6.848 h -6.432 v 21.12 h 4.032 z m 0,-9.952 h 2.048 c 2.56,0 3.744,0.928 3.744,3.072 0,2.048 -1.056,3.04 -3.584,3.04 h -2.208 z m 36.27601,13.44 h -7.904 v -17.28 h -4.032 v 21.12 h 11.936 z m 23.028,-17.344 h -4.352 l -6.912,21.184 h 4.096 l 1.152,-3.68 h 7.68 l 1.184,3.68 h 4.096 z m -4.768,13.664 2.592,-8.448 2.624,8.448 z m 31.73199,-9.76 h 5.92 v -3.84 h -15.872 v 3.84 h 5.92 v 17.28 h 4.032 z m 27.25202,-3.904 h -4.352 l -6.912,21.184 h 4.096 l 1.152,-3.68 h 7.68 l 1.184,3.68 h 4.096 z m -4.768,13.664 2.592,-8.448 2.624,8.448 z m 29.55598,-1.696 h 5.728 v -3.84 h -5.728 v -4.224 h 7.904 v -3.84 h -11.936 v 21.12 h 4.032 z m 20.56395,-1.344 c 0,4.768 2.24,7.904 4.992,9.472 1.92,1.12 3.84,1.536 5.664,1.536 2.688,0 5.888,-1.088 8.16,-3.616 1.504,-1.664 2.496,-4.32 2.496,-7.392 0,-8.096 -6.24,-11.008 -10.656,-11.008 -2.336,0 -4.768,0.8 -6.976,2.464 -2.176,1.632 -3.68,4.704 -3.68,8.544 z m 10.656,7.104 c -1.984,0 -3.584,-0.672 -4.768,-2.048 -1.184,-1.376 -1.792,-3.072 -1.792,-5.056 0,-2.016 0.576,-3.68 1.76,-5.056 1.184,-1.376 2.784,-2.048 4.8,-2.048 2.016,0 3.584,0.672 4.768,2.048 1.184,1.376 1.792,3.04 1.792,5.056 0,1.984 -0.608,3.68 -1.792,5.056 -1.184,1.376 -2.752,2.048 -4.768,2.048 z m 39.66799,3.456 c -0.736,-4.256 -2.592,-7.936 -5.888,-9.472 3.68,-0.256 5.728,-2.4 5.728,-5.824 0,-4 -2.88,-5.824 -7.456,-5.824 h -6.432 v 21.12 h 4.032 v -8.16 c 0.704,0.256 1.344,0.576 1.888,0.96 2.144,1.44 3.456,3.84 3.904,7.2 z m -10.016,-17.28 h 2.368 c 2.464,0 3.392,0.832 3.392,2.496 0,1.888 -1.184,2.816 -3.552,2.816 h -2.208 z m 46.10001,-3.84 h -4.576 l -5.952,9.504 -5.952,-9.504 h -4.576 v 21.12 h 3.968 v -14.784 l 4.896,7.68 h 3.328 l 4.896,-7.68 v 14.784 h 3.968 z m 25.07602,-0.064 h -4.352 l -6.912,21.184 h 4.096 l 1.152,-3.68 h 7.68 l 1.184,3.68 h 4.096 z m -4.768,13.664 2.592,-8.448 2.624,8.448 z m 52.36004,-13.664 h -4.352 l -6.912,21.184 h 4.096 l 1.152,-3.68 h 7.68 l 1.184,3.68 h 4.096 z m -4.768,13.664 2.592,-8.448 2.624,8.448 z m 39.79601,3.2 c -1.312,0.672 -3.072,0.992 -5.28,0.992 -1.728,0 -3.136,-0.48 -4.192,-1.408 -1.504,-1.376 -2.272,-3.296 -2.272,-5.76 0,-2.208 0.736,-4.608 2.24,-5.888 1.024,-0.896 2.56,-1.344 4.576,-1.344 1.76,0 3.392,0.256 4.928,0.8 v -3.84 c -1.504,-0.544 -3.2,-0.8 -5.088,-0.8 -3.2,0 -5.696,0.8 -7.488,2.368 -2.176,1.952 -3.264,4.8 -3.264,8.608 0,3.872 1.088,6.752 3.296,8.704 1.76,1.568 4.256,2.336 7.488,2.336 2.08,0 3.744,-0.32 5.056,-0.928 z m 23.89197,-16.864 h -4.352 l -6.912,21.184 h 4.096 l 1.152,-3.68 h 7.68 l 1.184,3.68 h 4.096 z m -4.768,13.664 2.592,-8.448 2.624,8.448 z m 32.46798,7.52 c 3.104,0 5.536,-0.832 7.36,-2.528 2.016,-1.856 3.04,-4.512 3.04,-8 0,-3.584 -1.088,-6.336 -3.232,-8.224 -1.824,-1.568 -4.192,-2.368 -7.168,-2.368 h -6.944 v 21.12 z m -2.912,-17.28 h 2.208 c 1.76,0 3.232,0.352 4.352,1.088 1.76,1.184 2.656,3.04 2.656,5.632 0,2.528 -0.864,4.352 -2.592,5.536 -1.184,0.8 -2.656,1.184 -4.416,1.184 h -2.208 z m 40.27601,13.44 h -7.904 v -5.536 h 5.728 v -3.84 h -5.728 v -4.064 h 7.904 v -3.84 h -11.936 v 21.12 h 11.936 z m 36.24406,-17.28 h -4.576 l -5.952,9.504 -5.952,-9.504 h -4.576 v 21.12 h 3.968 v -14.784 l 4.896,7.68 h 3.328 l 4.896,-7.68 v 14.784 h 3.968 z m 20.21202,0 h -4.032 v 21.12 h 4.032 z m 30.83597,16.8 c -1.312,0.672 -3.072,0.992 -5.28,0.992 -1.728,0 -3.136,-0.48 -4.192,-1.408 -1.504,-1.376 -2.272,-3.296 -2.272,-5.76 0,-2.208 0.736,-4.608 2.24,-5.888 1.024,-0.896 2.56,-1.344 4.576,-1.344 1.76,0 3.392,0.256 4.928,0.8 v -3.84 c -1.504,-0.544 -3.2,-0.8 -5.088,-0.8 -3.2,0 -5.696,0.8 -7.488,2.368 -2.176,1.952 -3.264,4.8 -3.264,8.608 0,3.872 1.088,6.752 3.296,8.704 1.76,1.568 4.256,2.336 7.488,2.336 2.08,0 3.744,-0.32 5.056,-0.928 z m 23.89198,-16.864 h -4.352 l -6.912,21.184 h 4.096 l 1.152,-3.68 h 7.68 l 1.184,3.68 h 4.096 z m -4.768,13.664 2.592,-8.448 2.624,8.448 z m 51.24001,7.52 c 3.104,0 5.536,-0.832 7.36,-2.528 2.016,-1.856 3.04,-4.512 3.04,-8 0,-3.584 -1.088,-6.336 -3.232,-8.224 -1.824,-1.568 -4.192,-2.368 -7.168,-2.368 h -6.944 v 21.12 z m -2.912,-17.28 h 2.208 c 1.76,0 3.232,0.352 4.352,1.088 1.76,1.184 2.656,3.04 2.656,5.632 0,2.528 -0.864,4.352 -2.592,5.536 -1.184,0.8 -2.656,1.184 -4.416,1.184 h -2.208 z m 40.27597,13.44 h -7.90396 v -5.536 h 5.728 v -3.84 h -5.728 v -4.064 h 7.90396 v -3.84 h -11.93596 v 21.12 h 11.93596 z m 48.8401,3.84 c -0.8,-4.832 -2.784,-7.936 -5.888,-9.312 3.68,-0.256 5.728,-2.432 5.728,-5.984 0,-4 -2.88,-5.824 -7.456,-5.824 h -6.432 v 21.12 h 4.032 v -8 c 0.704,0.256 1.344,0.576 1.888,0.96 2.144,1.472 3.456,3.808 3.904,7.04 z m -10.016,-17.28 h 2.368 c 2.464,0 3.392,0.832 3.392,2.496 0,1.888 -1.184,2.816 -3.552,2.816 h -2.208 z m 36.98,13.44 h -7.904 v -5.536 h 5.728 v -3.84 h -5.728 v -4.064 h 7.904 v -3.84 h -11.936 v 21.12 h 11.936 z m 14.964,3.232 c 0.672,0.48 2.592,0.928 4.16,0.928 1.76,0 3.232,-0.512 4.416,-1.536 1.184,-1.024 1.792,-2.4 1.792,-4.16 0,-1.792 -0.992,-3.744 -1.792,-4.768 -0.416,-0.512 -0.992,-1.184 -1.76,-2.016 -0.16,-0.192 -0.448,-0.512 -0.864,-0.928 -0.416,-0.416 -0.704,-0.736 -0.864,-0.928 l -0.576,-0.736 c -0.48,-0.64 -0.608,-1.056 -0.608,-1.568 0,-0.928 0.704,-1.376 2.144,-1.376 0.864,0 1.856,0.16 2.912,0.448 v -3.776 l -0.352,-0.096 c -0.48,-0.16 -1.664,-0.32 -2.816,-0.32 -4.256,0 -6.336,2.048 -6.336,4.864 0,0.832 0.224,1.696 0.64,2.56 0.416,0.864 0.832,1.504 1.248,1.984 0.416,0.48 1.024,1.088 1.792,1.888 l 0.832,0.832 c 0.48,0.48 0.8,0.8 0.928,0.96 l 0.608,0.8 c 0.544,0.736 0.704,1.28 0.704,2.016 0,1.376 -0.8,2.08 -2.4,2.08 -1.216,0 -2.496,-0.352 -3.808,-1.024 z m 37.492,-3.232 h -7.904 v -5.536 h 5.728 v -3.84 h -5.728 v -4.064 h 7.904 v -3.84 h -11.936 v 21.12 h 11.936 z m 32.148,-17.28 h -4 v 14.016 l -7.872,-14.016 h -5.088 v 21.12 h 4 v -14.784 l 8.32,14.784 h 4.64 z m -3.52,-5.888 c -0.576,0.704 -1.312,1.056 -2.176,1.056 -0.704,0 -1.504,-0.16 -2.368,-0.512 -0.864,-0.352 -1.664,-0.544 -2.336,-0.544 -0.928,0 -1.696,0.352 -2.272,1.056 v 3.136 c 0.576,-0.704 1.312,-1.056 2.176,-1.056 0.704,0 1.504,0.192 2.368,0.544 0.864,0.352 1.664,0.512 2.336,0.512 0.928,0 1.696,-0.352 2.272,-1.056 z m 28.596,5.824 h -4.352 l -6.912,21.184 h 4.096 l 1.152,-3.68 h 7.68 l 1.184,3.68 h 4.096 z m -4.768,13.664 2.592,-8.448 2.624,8.448 z m 25.14,6.912 c 0.672,0.48 2.592,0.928 4.16,0.928 1.76,0 3.232,-0.512 4.416,-1.536 1.184,-1.024 1.792,-2.4 1.792,-4.16 0,-1.792 -0.992,-3.744 -1.792,-4.768 -0.416,-0.512 -0.992,-1.184 -1.76,-2.016 -0.16,-0.192 -0.448,-0.512 -0.864,-0.928 -0.416,-0.416 -0.704,-0.736 -0.864,-0.928 l -0.576,-0.736 c -0.48,-0.64 -0.608,-1.056 -0.608,-1.568 0,-0.928 0.704,-1.376 2.144,-1.376 0.864,0 1.856,0.16 2.912,0.448 v -3.776 l -0.352,-0.096 c -0.48,-0.16 -1.664,-0.32 -2.816,-0.32 -4.256,0 -6.336,2.048 -6.336,4.864 0,0.832 0.224,1.696 0.64,2.56 0.416,0.864 0.832,1.504 1.248,1.984 0.416,0.48 1.024,1.088 1.792,1.888 l 0.832,0.832 c 0.48,0.48 0.8,0.8 0.928,0.96 l 0.608,0.8 c 0.544,0.736 0.704,1.28 0.704,2.016 0,1.376 -0.8,2.08 -2.4,2.08 -1.216,0 -2.496,-0.352 -3.808,-1.024 z"
     id="text2"
     aria-label="PLATAFORMA ACADEMICA de reseñAS" />
  <g
     id="text1"
     style="font-size:122.667px;font-family:ArtifexCFBold;-inkscape-font-specification:ArtifexCFBold;fill:#eccd7b"
     aria-label="PROFEOPINA">
    <path
       style="fill:#353564"
       d="m 432.15462,177.41839 c 0,-9.0443 -3.17449,-15.69275 -9.52346,-19.94537 -6.34898,-4.25262 -14.73442,-6.34898 -25.09643,-6.34898 -1.85677,0 -5.33074,0.1198 -10.4219,0.35938 -5.09116,0.23958 -9.28388,0.35938 -12.57816,0.35938 -5.57033,-0.0599 -10.30211,-0.29948 -14.13545,-0.77865 -0.53907,-0.0599 -0.89844,0.59896 -1.07813,1.97657 -0.17969,1.3776 -0.0599,2.15625 0.41927,2.33594 3.35418,0.89844 5.86981,2.21615 7.60679,3.89324 1.73699,1.67709 2.57553,4.4323 2.57553,8.20575 v 54.68505 c 0,3.65365 -0.83854,6.28907 -2.57553,7.90627 -1.73698,1.61719 -4.25261,2.63542 -7.60679,3.11459 -0.29948,0 -0.47917,0.35937 -0.47917,1.07813 0,0.71875 0.1198,1.4375 0.35938,2.15625 0.23958,0.71875 0.53906,1.07813 0.83854,1.07813 h 37.19542 c 0.29948,0 0.53906,-0.35938 0.71875,-1.07813 0.17969,-0.71875 0.29948,-1.4375 0.29948,-2.15625 0,-0.71876 -0.11979,-1.07813 -0.35938,-1.07813 -4.67189,-0.53907 -8.14585,-1.5573 -10.362,-2.9948 -2.21616,-1.43751 -3.35418,-4.13283 -3.35418,-8.02606 v -17.66932 c 13.95577,2.09636 25.3959,0.77864 34.26051,-3.95314 8.86461,-4.73178 13.29691,-12.39847 13.29691,-23.00006 z m -37.73448,-19.76568 c 6.46877,0 11.73962,2.03646 15.81255,6.04949 4.07292,4.01303 6.10939,9.58336 6.10939,16.71099 0,7.84637 -2.63543,13.17711 -7.90627,16.05212 -5.27085,2.87501 -13.23702,3.59376 -23.83861,2.09636 v -31.02612 c 0,-3.71356 0.71875,-6.28908 2.09636,-7.72659 1.37761,-1.4375 3.95314,-2.15625 7.72658,-2.15625 z m 138.89882,76.54708 c -3.53386,0 -6.94793,-2.03646 -10.24221,-6.16929 l -18.26828,-22.94016 c -2.69532,-3.35418 -5.09116,-5.63023 -7.12763,-6.88804 -2.03646,-1.25782 -4.25261,-1.85678 -6.70835,-1.85678 v -0.59896 c 5.80991,-0.29948 10.90107,-2.33594 15.27348,-6.16929 4.37241,-3.83334 6.52866,-9.04429 6.52866,-15.69275 0,-7.36721 -2.75521,-12.99743 -8.32554,-16.89067 -5.57033,-3.89324 -13.11722,-5.80991 -22.64069,-5.80991 -1.73698,0 -5.27084,0.11979 -10.60159,0.35938 -5.33074,0.23958 -9.64325,0.35937 -12.93753,0.35937 -5.57033,-0.0599 -10.30211,-0.29948 -14.13546,-0.77865 -0.53906,-0.0599 -0.89844,0.59896 -1.07813,1.97657 -0.17968,1.37761 -0.0599,2.15626 0.41928,2.33595 3.35417,0.89844 5.8698,2.21615 7.60679,3.89324 1.73698,1.67708 2.57553,4.4323 2.57553,8.20575 v 54.68504 c 0,3.65366 -0.83855,6.28908 -2.57553,7.90627 -1.73699,1.61719 -4.25262,2.63543 -7.60679,3.11459 -0.29948,0 -0.47917,0.35938 -0.47917,1.07813 0,0.71875 0.11979,1.43751 0.35937,2.15626 0.23959,0.71875 0.53907,1.07813 0.83855,1.07813 h 37.19541 c 0.29948,0 0.53907,-0.35938 0.71875,-1.07813 0.17969,-0.71875 0.29948,-1.43751 0.29948,-2.15626 0,-0.71875 -0.11979,-1.07813 -0.35937,-1.07813 -4.67189,-0.53906 -8.14586,-1.55729 -10.36201,-2.9948 -2.21615,-1.4375 -3.35417,-4.13282 -3.35417,-8.02606 v -23.77871 c 4.91147,0.0599 8.8646,0.59896 11.9193,1.61719 3.05469,1.01823 5.80991,3.11459 8.26565,6.28908 l 18.86723,24.25788 c 2.27605,2.9349 5.03127,5.15106 8.20576,6.64846 3.17448,1.4974 6.16928,2.15625 9.04429,1.97656 2.87501,-0.17968 5.69012,-0.59896 8.50523,-1.31771 0.41927,-0.17969 0.65886,-0.77865 0.71875,-1.85677 0.0599,-1.07813 -0.17968,-1.6172 -0.65885,-1.6172 z m -61.3335,-41.32824 h -3.53386 v -25.27611 c 0,-3.53386 0.71875,-6.04949 2.15625,-7.54689 1.43751,-1.4974 3.89324,-2.27605 7.42711,-2.27605 5.69012,0 10.30211,1.67709 13.83597,5.03126 3.53387,3.35418 5.33075,8.20575 5.33075,14.49483 0,5.9896 -1.85678,10.06253 -5.57033,12.21879 -3.71355,2.15625 -10.30211,3.23438 -19.70579,3.23438 z m 108.71124,46.3595 c 13.17712,0 23.8985,-4.3724 32.16415,-13.17712 8.26565,-8.80471 12.39847,-19.58599 12.39847,-32.34383 0,-12.75785 -4.19272,-23.29955 -12.51826,-31.68498 -8.32554,-8.38544 -18.92713,-12.57816 -31.80477,-12.57816 -13.17712,0 -23.89851,4.3724 -32.16415,13.17712 -8.26565,8.80471 -12.39847,19.52609 -12.39847,32.16414 0,12.75785 4.19271,23.35944 12.57815,31.80478 8.38544,8.44533 18.92714,12.63805 31.68499,12.63805 z m 4.73179,-8.32554 c -9.0443,0 -17.07036,-4.13282 -24.0183,-12.33857 -6.94793,-8.20576 -10.4219,-18.38808 -10.4219,-30.54696 0,-5.51043 0.77865,-10.30211 2.33594,-14.37504 1.5573,-4.07293 3.59376,-7.18752 6.16929,-9.40367 2.57553,-2.21615 5.21095,-3.83335 7.96617,-4.85158 2.75521,-1.01823 5.57032,-1.4974 8.50523,-1.4974 9.10419,0 17.13025,4.13283 24.07819,12.33858 6.94793,8.20575 10.4219,18.38807 10.4219,30.48706 0,5.45053 -0.77865,10.24221 -2.33594,14.37504 -1.5573,4.13282 -3.65366,7.30731 -6.28908,9.52346 -2.63542,2.21615 -5.33074,3.83334 -8.08596,4.85158 -2.75522,1.01823 -5.63022,1.55729 -8.56513,1.55729 z m 49.65377,6.58856 c 4.61199,-0.47917 11.02086,-0.71875 19.22661,-0.71875 7.84638,0 15.27348,0.23958 22.28131,0.71875 0.53907,0.0599 0.95834,-0.59896 1.19792,-2.03646 0.23959,-1.43751 0.0599,-2.21616 -0.47917,-2.39584 l -1.4375,-0.35938 c -3.29428,-0.71875 -5.39064,-1.19792 -6.34898,-1.4375 -0.95833,-0.23959 -2.27604,-0.83855 -4.01303,-1.73699 -1.73698,-0.89844 -2.81511,-1.97657 -3.29428,-3.29428 -0.47917,-1.31771 -0.71875,-2.9948 -0.71875,-5.09116 v -19.4063 c 0,-1.4974 0.29948,-2.51563 0.95834,-3.0547 0.65885,-0.53906 1.67708,-0.77864 3.05469,-0.77864 h 1.67709 c 8.20575,0 13.59639,1.85677 16.23182,5.51043 0.71875,0.95833 1.4375,1.4375 2.21615,1.4375 0.77865,0 1.37761,-0.53906 1.85677,-1.61719 l 7.00783,-15.45317 c 0.47917,-1.13802 0.29948,-1.85677 -0.53906,-2.15625 -0.83854,-0.29948 -1.61719,-0.11979 -2.27605,0.53906 -4.07292,3.65366 -11.9193,5.51043 -23.53912,5.51043 h -2.69532 c -1.37761,0 -2.39584,-0.23958 -3.0547,-0.77864 -0.65886,-0.53907 -1.01823,-1.5573 -1.01823,-3.0547 v -21.26308 c 0,-3.17449 0.83854,-5.39064 2.51563,-6.64845 1.67709,-1.25782 4.61199,-1.91668 8.86461,-1.91668 7.18752,0 12.21878,0.77865 15.09379,2.27605 2.87501,1.4974 4.79168,3.89324 5.80991,7.18752 0.23958,0.77865 0.89844,1.19792 1.97657,1.19792 1.07813,0 1.67709,-0.41927 1.85677,-1.19792 l 2.93491,-11.67972 c 0.41927,-1.37761 0.47917,-2.51563 0.17969,-3.41407 -0.29948,-0.89844 -1.13803,-1.31771 -2.51564,-1.31771 -2.27604,0.0599 -5.27084,0.17969 -9.04429,0.29948 -3.77345,0.11979 -7.24742,0.23958 -10.4818,0.35937 -3.23438,0.1198 -6.46877,0.17969 -9.76305,0.17969 -16.71098,-0.0599 -27.31257,-0.29948 -31.80477,-0.77865 -0.53907,-0.0599 -0.89844,0.59896 -1.07813,1.97657 -0.17969,1.37761 -0.0599,2.09636 0.41927,2.15626 3.29428,0.77865 5.80991,1.97657 7.60679,3.59376 1.79688,1.61719 2.69532,4.19272 2.69532,7.72658 v 54.50536 c 0,2.21615 -0.23958,4.01303 -0.77864,5.39064 -0.53907,1.3776 -1.5573,2.51563 -3.0547,3.35417 -1.4974,0.83855 -2.75522,1.43751 -3.77345,1.73699 -1.01823,0.29948 -2.75521,0.77864 -5.21095,1.4375 -0.47917,0.17969 -0.59896,0.95834 -0.35938,2.39584 0.23959,1.4375 0.59896,2.09636 1.13803,2.03646 z m 75.88824,0 c 4.97137,-0.47917 16.89067,-0.71875 35.75791,-0.71875 6.76825,0 14.73442,0.23958 23.8985,0.71875 3.53387,0 6.58856,-2.15626 9.16409,-6.52866 2.57553,-4.37241 3.83334,-8.38544 3.83334,-12.0391 0,-1.01823 -0.59896,-1.67709 -1.79688,-1.97657 -1.19792,-0.29948 -1.97656,-0.11979 -2.39584,0.59896 -5.57032,8.74482 -15.21358,13.11723 -28.86987,13.11723 -4.97136,0 -8.38543,-0.71876 -10.24221,-2.15626 -1.85678,-1.4375 -2.81511,-3.89324 -2.81511,-7.4271 v -20.60423 c 0,-1.4974 0.29948,-2.51563 0.95833,-3.05469 0.65886,-0.53907 1.67709,-0.77865 3.0547,-0.77865 h 1.67709 c 8.20575,0 13.59639,1.85678 16.23181,5.51043 0.71875,1.01823 1.43751,1.4974 2.21615,1.4974 0.77865,0 1.37761,-0.53906 1.85678,-1.61719 l 7.00783,-15.45317 c 0.47917,-1.13802 0.29948,-1.85677 -0.53906,-2.15625 -0.83855,-0.29948 -1.61719,-0.11979 -2.27605,0.53906 -4.07293,3.65366 -11.9193,5.51043 -23.53913,5.51043 h -2.69532 c -1.3776,0 -2.39584,-0.23958 -3.05469,-0.77864 -0.65886,-0.53907 -1.01823,-1.5573 -1.01823,-3.0547 v -20.00526 c 0,-3.17449 0.83854,-5.39064 2.51563,-6.64846 1.67709,-1.25781 4.61199,-1.91667 8.8646,-1.91667 7.18752,0 12.21879,0.77865 15.0938,2.27605 2.875,1.4974 4.79168,3.89324 5.80991,7.18752 0.23958,0.77864 0.89844,1.19792 1.97657,1.19792 1.07812,0 1.67708,-0.41928 1.85677,-1.19792 l 2.9349,-11.67972 c 0.41928,-1.37761 0.47917,-2.51563 0.17969,-3.41407 -0.29948,-0.89844 -1.13802,-1.31772 -2.51563,-1.31772 -2.27605,0.0599 -5.27085,0.17969 -9.04429,0.29948 -3.77345,0.1198 -7.24742,0.23959 -10.4818,0.35938 -3.23439,0.11979 -6.46877,0.17969 -9.76305,0.17969 -16.71098,-0.0599 -27.31258,-0.29948 -31.80477,-0.77865 -0.53907,-0.0599 -0.89844,0.59896 -1.07813,1.97657 -0.17969,1.37761 -0.0599,2.09636 0.41927,2.15625 3.29428,0.77865 5.80991,1.97657 7.60679,3.59376 1.79688,1.6172 2.69532,4.19272 2.69532,7.72659 v 54.50535 c 0,2.21616 -0.23958,4.01303 -0.77865,5.39064 -0.53906,1.37761 -1.55729,2.51563 -3.05469,3.35418 -1.4974,0.83854 -2.75522,1.4375 -3.77345,1.73698 -1.01823,0.29948 -2.75522,0.77865 -5.21095,1.43751 -0.47917,0.17968 -0.59896,0.95833 -0.35938,2.39584 0.23959,1.4375 0.59896,2.09636 1.13803,2.03646 z"
       id="path1" />
    <path
       style="fill:#d9bc27"
       d="m 839.62709,239.23105 c 13.17712,0 23.8985,-4.3724 32.16415,-13.17712 8.26565,-8.80471 12.39847,-19.58599 12.39847,-32.34383 0,-12.75785 -4.19272,-23.29955 -12.51826,-31.68498 -8.32554,-8.38544 -18.92714,-12.57816 -31.80477,-12.57816 -13.17712,0 -23.89851,4.3724 -32.16415,13.17712 -8.26565,8.80471 -12.39848,19.52609 -12.39848,32.16414 0,12.75785 4.19272,23.35944 12.57816,31.80478 8.38544,8.44533 18.92714,12.63805 31.68499,12.63805 z m 4.73179,-8.32554 c -9.0443,0 -17.07036,-4.13282 -24.0183,-12.33857 -6.94793,-8.20576 -10.4219,-18.38808 -10.4219,-30.54696 0,-5.51043 0.77865,-10.30211 2.33594,-14.37504 1.5573,-4.07293 3.59376,-7.18752 6.16929,-9.40367 2.57553,-2.21615 5.21095,-3.83335 7.96617,-4.85158 2.75521,-1.01823 5.57032,-1.4974 8.50523,-1.4974 9.10419,0 17.13025,4.13283 24.07819,12.33858 6.94793,8.20575 10.4219,18.38807 10.4219,30.48706 0,5.45053 -0.77865,10.24221 -2.33594,14.37504 -1.5573,4.13282 -3.65366,7.30731 -6.28908,9.52346 -2.63543,2.21615 -5.33075,3.83334 -8.08596,4.85158 -2.75522,1.01823 -5.63022,1.55729 -8.56513,1.55729 z m 124.40396,-53.48712 c 0,-9.0443 -3.17449,-15.69275 -9.52347,-19.94537 -6.34897,-4.25262 -14.73441,-6.34898 -25.09642,-6.34898 -1.85678,0 -5.33074,0.1198 -10.4219,0.35938 -5.09116,0.23958 -9.28388,0.35938 -12.57816,0.35938 -5.57033,-0.0599 -10.30211,-0.29948 -14.13546,-0.77865 -0.53906,-0.0599 -0.89844,0.59896 -1.07813,1.97657 -0.17968,1.3776 -0.0599,2.15625 0.41928,2.33594 3.35417,0.89844 5.8698,2.21615 7.60679,3.89324 1.73698,1.67709 2.57553,4.4323 2.57553,8.20575 v 54.68505 c 0,3.65365 -0.83855,6.28907 -2.57553,7.90627 -1.73699,1.61719 -4.25262,2.63542 -7.60679,3.11459 -0.29948,0 -0.47917,0.35937 -0.47917,1.07813 0,0.71875 0.11979,1.4375 0.35937,2.15625 0.23959,0.71875 0.53907,1.07813 0.83855,1.07813 h 37.19541 c 0.29948,0 0.53907,-0.35938 0.71875,-1.07813 0.17969,-0.71875 0.29948,-1.4375 0.29948,-2.15625 0,-0.71876 -0.11979,-1.07813 -0.35937,-1.07813 -4.67189,-0.53907 -8.14586,-1.5573 -10.36201,-2.9948 -2.21615,-1.43751 -3.35418,-4.13283 -3.35418,-8.02606 v -17.66932 c 13.95577,2.09636 25.39591,0.77864 34.26051,-3.95314 8.86461,-4.73178 13.29692,-12.39847 13.29692,-23.00006 z m -37.73448,-19.76568 c 6.46877,0 11.73961,2.03646 15.81254,6.04949 4.07293,4.01303 6.10939,9.58336 6.10939,16.71099 0,7.84637 -2.63542,13.17711 -7.90627,16.05212 -5.27085,2.87501 -13.23701,3.59376 -23.83861,2.09636 v -31.02612 c 0,-3.71356 0.71876,-6.28908 2.09636,-7.72659 1.37761,-1.4375 3.95314,-2.15625 7.72659,-2.15625 z m 49.95325,79.60178 h 33.66159 c 0.2994,0 0.5989,-0.35938 0.8385,-1.07813 0.2396,-0.71875 0.3594,-1.43751 0.3594,-2.15626 0,-0.71875 -0.1797,-1.07813 -0.4792,-1.07813 -3.1745,-0.41927 -5.6901,-1.3776 -7.487,-2.875 -1.7969,-1.4974 -2.6953,-4.19272 -2.6953,-8.08596 v -55.4637 c 0,-3.89323 0.8984,-6.58855 2.6953,-8.08595 1.7969,-1.4974 4.3125,-2.45574 7.487,-2.87501 0.2995,0 0.4792,-0.35938 0.4792,-1.07813 0,-0.71875 -0.1198,-1.4375 -0.3594,-2.15626 -0.2396,-0.71875 -0.5391,-1.07812 -0.8385,-1.07812 h -33.66159 c -0.29948,0 -0.59896,0.35937 -0.83854,1.07812 -0.23958,0.71876 -0.35938,1.43751 -0.35938,2.15626 0,0.71875 0.17969,1.07813 0.47917,1.07813 3.35418,0.47917 5.86981,1.4974 7.60679,3.11459 1.73699,1.61719 2.57553,4.25262 2.57553,7.90627 v 55.46369 c 0,3.65366 -0.83854,6.28908 -2.57553,7.90627 -1.73698,1.6172 -4.25261,2.63543 -7.60679,3.1146 -0.29948,0 -0.47917,0.35937 -0.47917,1.07812 0,0.71876 0.1198,1.43751 0.35938,2.15626 0.23958,0.71875 0.53906,1.07813 0.83854,1.07813 z m 125.96129,1.19792 c 1.138,0 2.0365,-0.17969 2.6953,-0.53907 0.6589,-0.35937 0.8985,-0.95833 0.6589,-1.73698 -0.9584,-3.65366 -1.4375,-10.84118 -1.4375,-21.62246 v -47.73711 c 0,-2.03646 0.2395,-3.71355 0.6588,-5.03126 0.4193,-1.31771 1.2578,-2.39584 2.4558,-3.23438 1.1979,-0.83855 2.1562,-1.37761 2.875,-1.67709 0.7187,-0.29948 2.0364,-0.71875 4.013,-1.25782 0.5391,-0.17968 0.6589,-0.89844 0.4193,-2.21615 -0.2396,-1.31771 -0.599,-1.97657 -1.0782,-1.97657 h -29.0495 c -0.599,0 -1.0183,0.65886 -1.1979,1.97657 -0.1797,1.31771 -0.06,2.03647 0.4192,2.21615 2.2761,0.53907 3.8334,0.95834 4.6719,1.25782 0.8386,0.29948 1.9766,0.83854 3.4141,1.67709 1.4375,0.83854 2.3958,1.91667 2.9349,3.23438 0.5391,1.31771 0.7786,2.9948 0.7786,5.03126 v 46.11992 l -57.1407,-60.43506 c -0.6589,-0.77865 -1.6172,-1.13802 -2.9349,-1.13802 h -9.1042 c -0.7787,0 -1.3776,0.29948 -1.7969,0.89844 -0.4193,0.59896 -0.6589,1.19792 -0.6589,1.85677 0,0.1198 0.06,0.23959 0.1797,0.41928 0.1198,0.17968 0.2995,0.35937 0.5391,0.59896 0.2396,0.23958 0.4792,0.53906 0.7786,0.89844 0.2995,0.35937 0.5391,0.71875 0.7787,1.01823 3.0547,4.07293 4.5521,9.76304 4.5521,17.13025 v 47.61732 c 0,3.59376 -0.8985,6.22918 -2.6953,7.96617 -1.0782,0.95833 -3.5339,2.09636 -7.3673,3.41407 -0.539,0.17969 -0.7187,0.89844 -0.4791,2.21615 0.2396,1.31771 0.5989,1.97657 1.0781,1.97657 h 29.0496 c 0.5989,0 1.0182,-0.65886 1.1979,-1.97657 0.1797,-1.31771 0.06,-2.03646 -0.4193,-2.21615 -2.2161,-0.53907 -3.8932,-1.01823 -4.9714,-1.37761 -1.0781,-0.35938 -2.2161,-0.95834 -3.4739,-1.79688 -1.2578,-0.83854 -2.1563,-1.91667 -2.6953,-3.23438 -0.5391,-1.31772 -0.8386,-2.9948 -0.8386,-5.03127 v -46.59908 l 58.3986,61.09391 c 1.3776,1.4974 2.875,2.27605 4.4922,2.27605 z m 108.5316,-5.39064 c -2.6355,-0.41928 -4.7917,-1.4974 -6.5287,-3.23439 -1.737,-1.73698 -3.6536,-5.03126 -5.75,-9.94273 l -29.8881,-69.77884 c -0.1797,-0.41927 -1.737,-0.29948 -4.612,0.29948 -2.875,0.59896 -4.3125,1.13803 -4.3125,1.5573 0,4.25261 -2.0964,11.08076 -6.2292,20.48443 l -20.7839,47.55742 c -2.0964,4.91147 -4.013,8.20575 -5.6901,9.82294 -1.6771,1.61719 -3.9532,2.69532 -6.7683,3.17449 -0.7786,0.17969 -1.0781,0.89844 -0.9583,2.21615 0.1198,1.31771 0.5391,1.97657 1.2578,1.97657 h 26.474 c 0.8386,0 1.3177,-0.65886 1.4375,-1.97657 0.1198,-1.31771 -0.2395,-2.03646 -1.0182,-2.21615 -1.737,-0.23958 -3.1146,-0.53906 -4.1328,-0.89844 -1.0182,-0.35938 -1.9167,-0.95834 -2.7552,-1.85678 -0.8386,-0.89844 -1.198,-2.21615 -1.1381,-3.89324 0.06,-1.67708 0.6589,-3.77344 1.737,-6.28907 l 1.1979,-3.0547 c 0.599,-1.37761 1.3777,-2.27605 2.3959,-2.63542 1.0182,-0.35938 2.5156,-0.53907 4.5521,-0.53907 h 25.0365 c 2.0365,0 3.5938,0.17969 4.612,0.53907 1.0182,0.35937 1.7969,1.25781 2.3359,2.63542 l 1.3178,3.0547 c 1.0781,2.57552 1.677,4.67188 1.8567,6.34897 0.1797,1.67709 -0.1198,2.9948 -0.8984,3.89324 -0.7787,0.89844 -1.6172,1.5573 -2.4557,1.91667 -0.8386,0.35938 -1.9766,0.65886 -3.3542,0.89844 -0.6589,0.17969 -0.9584,0.89844 -0.8985,2.21615 0.06,1.31772 0.4792,1.97657 1.2579,1.97657 h 32.4037 c 0.7187,0 1.138,-0.65885 1.2578,-1.97657 0.1198,-1.31771 -0.2396,-2.03646 -1.0182,-2.21615 z m -37.3751,-26.05476 h -23.1798 c -1.0182,0 -1.8568,-0.11979 -2.4557,-0.41927 -0.599,-0.29948 -0.7188,-0.77865 -0.4193,-1.4974 l 14.4948,-34.32041 14.3751,34.32041 c 0.2396,0.59896 0.1797,1.01823 -0.1198,1.31771 -0.2995,0.29948 -0.6589,0.47917 -1.138,0.53906 -0.4792,0.0599 -1.0183,0.11979 -1.6771,0.11979 z"
       id="path2" />
  </g>
</svg>
