<?xml version="1.0" encoding="UTF-8" standalone="no"?>
<svg
   version="1.0"
   width="299.51233"
   height="409.20001"
   viewBox="0 0 299.51232 409.20001"
   preserveAspectRatio="xMidYMid"
   id="svg48"
   sodipodi:docname="Logo_icon.svg"
   inkscape:version="1.3 (0e150ed6c4, 2023-07-21)"
   inkscape:export-filename="LogoF.svg"
   inkscape:export-xdpi="96"
   inkscape:export-ydpi="96"
   xmlns:inkscape="http://www.inkscape.org/namespaces/inkscape"
   xmlns:sodipodi="http://sodipodi.sourceforge.net/DTD/sodipodi-0.dtd"
   xmlns="http://www.w3.org/2000/svg"
   xmlns:svg="http://www.w3.org/2000/svg">
  <defs
     id="defs48" />
  <sodipodi:namedview
     id="namedview48"
     pagecolor="#ffffff"
     bordercolor="#999999"
     borderopacity="1"
     inkscape:showpageshadow="2"
     inkscape:pageopacity="0"
     inkscape:pagecheckerboard="0"
     inkscape:deskcolor="#d1d1d1"
     inkscape:zoom="0.25"
     inkscape:cx="874"
     inkscape:cy="538"
     inkscape:window-width="1366"
     inkscape:window-height="705"
     inkscape:window-x="-8"
     inkscape:window-y="-8"
     inkscape:window-maximized="1"
     inkscape:current-layer="svg48" />
  <g
     id="g1"
     style="fill:#d9bc27;fill-opacity:1">
    <path
       d="m 25.512342,407.2 c -2.4,-2.4 -2.5,-4.8 -0.4,-7.8 l 1.5,-2.2 h 122.899998 122.9 l 1.5,2.2 c 2.1,3 2,5.4 -0.4,7.8 -2,2 -3.3,2 -124,2 -120.699998,0 -121.999998,0 -123.999998,-2 z"
       id="path33"
       style="fill:#d9bc27;fill-opacity:1" />
    <path
       d="m 35.812342,391.2 c -1.8,-1 -3.9,-3 -4.8,-4.4 -2.4,-3.6 -31.70000011,-142.2 -31.00000011,-146.2 0.3,-1.8 1.50000001,-4.4 2.60000001,-5.8 3.7,-4.6 6.9,-5.6 18.7000001,-5.6 h 10.9 l 3.3,-9.2 c 4.3,-12.5 9.2,-21.1 16.2,-28.4 10.1,-10.6 18.1,-13.6 40.8,-15.4 10.899998,-0.9 13.499998,-0.8 13.899998,0.2 0.2,0.7 2.1,2.9 4.2,5 7.4,7.1 24.5,11.3 42.4,10.6 18.6,-0.9 34.1,-6.4 38.3,-13.8 l 1.7,-2.9 9,0.5 c 14.2,0.9 26.4,3.2 33.1,6.3 11.8,5.5 21.9,19 28.5,37.9 l 3.2,9.2 h 11.1 c 9.3,0 11.6,0.3 14.4,2 3.6,2.2 7.2,7.4 7.2,10.4 0,4.2 -29.2,140.3 -30.8,143.6 -0.9,1.9 -3.2,4.5 -5.1,5.7 l -3.4,2.3 h -110.6 c -107.899998,0 -110.699998,-0.1 -113.799998,-2 z m 218.999998,-3.7 c 4.7,-0.7 9.3,-5.1 10.7,-10.1 0.8,-3 26.8,-122.2 28.6,-131.3 0.7,-3.7 -4.4,-9.5 -9.6,-10.9 -2.5,-0.7 -48.5,-0.9 -137.3,-0.8 -133.099998,0.3 -133.599998,0.3 -136.299998,2.4 -1.5000001,1.1 -3.6000001,3.2 -4.7000001,4.5 -1.8,2.6 -1.8,2.8 12.3000001,67.5 7.7,35.7 14.3,66.1 14.6,67.7 0.7,3.6 5,8.6 8.9,10.3 2.4,1.1 22.6,1.3 105.999998,1.3 56.7,0.1 104.7,-0.2 106.8,-0.6 z"
       id="path34"
       style="fill:#d9bc27;fill-opacity:1" />
    <path
       d="m 142.71234,322.5 c -4.2,-1.7 -5.6,-13.2 -2.1,-17.7 1.9,-2.4 2.7,-2.6 8.9,-2.6 6.2,0 7,0.2 8.9,2.6 3.2,4 2.9,12.6 -0.4,15.9 -2,2.1 -3.3,2.5 -8.2,2.4 -3.2,0 -6.4,-0.3 -7.1,-0.6 z"
       id="path35"
       style="fill:#d9bc27;fill-opacity:1" />
    <path
       d="m 137.01234,172.4 c -13.5,-4.8 -27.3,-19.4 -36,-38.2 -1.599998,-3.6 -4.199998,-7.5 -5.699998,-8.8 -6.4,-5.5 -9.7,-24.8 -5.2,-30.9 1.3,-1.8 2.5,-5.9 3.3,-11.3 0.7,-4.7 1.7,-10.2 2.2,-12.2 0.5,-2 1.2,-9.1 1.4,-15.7 l 0.5,-12 -6.1,-3.6 c -3.3,-1.9 -6.2,-3.5 -6.5,-3.5 -1.1,0 -0.2,2.6 1.7,4.6 2.1,2.2 2.1,2.5 0.6,4.8 -1.5,2.2 -1.5,4.2 -0.1,22.6 1.4,18.7 1.4,20.6 -0.2,25.4 -0.9,2.8 -2,5.5 -2.4,5.9 -0.3,0.4 -1.5,-1.9 -2.5,-5.2 -1.7,-5.6 -1.7,-7.1 -0.3,-26.3 1.3,-17.5 1.3,-20.5 0,-22 -1.4,-1.7 -0.8,-5.8 0.9,-5.8 2,0 0.8,-5 -1.6,-6.6 -1.4,-0.9 -2.5,-2.2 -2.5,-2.9 0,-0.7 15.3,-7.6 35.299998,-16 l 35.3,-14.7 34.9,14.6 c 19.1,8 35.2,14.9 35.7,15.4 1.3,1.3 0,2.4 -12.1,9.4 l -10.3,6 0.7,5.7 c 0.4,3 1.6,7.3 2.6,9.3 2.8,5.5 4.9,15.3 4.9,23.3 0,5.1 0.6,8.2 2,11 1.2,2.4 2,5.9 2,9 0,8.5 -4,20.3 -7.5,22.2 -0.8,0.5 -3.3,4.6 -5.5,9.1 -5.5,11.5 -10.6,18.7 -18.8,26.3 -9.7,9.3 -16.3,12.3 -27.2,12.7 -6.2,0.2 -9.9,-0.3 -13.5,-1.6 z m 21.9,-14.5 c 9.9,-4.6 19.4,-15.5 26,-29.9 2.3,-5.1 4.1,-7.7 5.5,-8.1 2.6,-0.6 5.4,-6.8 5.5,-12.2 0.1,-3.4 -0.2,-4 -2.1,-4.3 -1.6,-0.2 -2.6,-1.6 -3.9,-5.5 -2.9,-8.9 -4.1,-10.7 -7.3,-10.7 -1.6,0 -5.2,-1.1 -7.9,-2.5 -5.8,-2.9 -8.3,-3.1 -16.6,-0.9 -6.8,1.8 -14.6,1.5 -27.3,-1.2 -7.2,-1.5 -7.6,-1.4 -11.9,0.6 -5.2,2.5 -9.5,8.3 -11.3,15.2 -1,3.5 -1.9,4.8 -3.5,5 -4.899998,0.7 -1.2,15.9 4.2,16.6 1.2,0.2 2.2,0.9 2.2,1.7 0,2.7 8.4,17.9 12.9,23.3 5.2,6.3 13.6,12.5 19.7,14.8 4.8,1.7 8.9,1.2 15.8,-1.9 z"
       id="path46"
       style="fill:#d9bc27;fill-opacity:1" />
    <path
       d="m 39.012342,389.8 c -4.2,-1.8 -8.3,-6.9 -9.1,-11.4 -0.4,-2 -7,-32.9 -14.9,-68.7 C 0.01234189,240.6 0.11234189,241.5 4.7123419,236.4 c 5.1,-5.5 -2,-5.2 143.9999981,-5.2 88.8,0 136.6,0.4 139,1 2.1,0.6 5,2.6 6.8,4.7 3,3.4 3.2,4 2.7,9.2 -0.4,4.9 -26.1,124.5 -28.7,134.3 -1.4,5 -6,9.4 -10.7,10.1 -2.1,0.4 -51.5,0.7 -109.8,0.6 -85.899998,0 -106.599998,-0.2 -108.999998,-1.3 z M 155.01234,317.7 c 3.1,-3 3.2,-6.4 0.4,-9.9 -4.5,-5.7 -15.2,-1 -13.5,5.8 1.6,6.5 8.6,8.7 13.1,4.1 z"
       id="path47"
       style="fill:none;fill-opacity:1" />
    <path
       d="m 140.11234,162.7 c -6.1,-2.1 -14.4,-8.4 -19.7,-14.7 -4.5,-5.4 -12.9,-20.6 -12.9,-23.3 0,-0.8 -1,-1.5 -2.2,-1.7 -3.6,-0.5 -6.799998,-7.9 -6.799998,-15.5 0,-5.1 0.3,-6.4 1.899998,-7.2 1,-0.6 2.1,-0.8 2.3,-0.5 0.3,0.2 1.1,-1.7 1.8,-4.3 2,-7.1 6.2,-12.7 11.5,-15.3 5.1,-2.5 7.6,-2.4 24.2,0.4 8.8,1.6 9.6,1.6 17,-0.3 9,-2.2 14.2,-1.8 21.5,1.9 5.2,2.6 6.6,2.3 4.8,-0.9 -0.7,-1.4 -0.7,-2.1 0,-2.1 1.9,0 6.9,8.1 9,14.6 1.5,4.3 2.6,6.4 3.5,6 2.3,-0.8 3.5,1.7 3.4,7.4 0,7 -2.7,14.2 -5.7,15.5 -1.5,0.7 -3.8,4.1 -6.7,10 -4.8,10 -11.8,19.2 -18.2,24.1 -8.7,6.6 -20.1,9 -28.7,5.9 z"
       id="path48"
       style="fill:none;fill-opacity:1" />
  </g>
</svg>
