<?xml version="1.0"?>
<svg width="857.21359" height="146.91351" xmlns="http://www.w3.org/2000/svg" xmlns:svg="http://www.w3.org/2000/svg" preserveAspectRatio="xMidYMid meet" version="1.0">
 <defs>
  <g id="svg_1"/>
 </defs>
 <g class="layer">
  <title>Layer 1</title>
  <g fill="#353564" id="svg_2">
   <g id="svg_3" transform="translate(2.21858 130.5)">
    <g id="svg_4">
     <path d="m94.72,-89.28c0,10.18 -4.25,17.51 -12.75,22.01c-8.49,4.5 -19.42,5.73 -32.8,3.69l0,17.14c0,3.76 1.07,6.33 3.22,7.71c2.16,1.36 5.5,2.32 10.05,2.85c0.22,0 0.34,0.34 0.34,1c0,0.67 -0.1,1.32 -0.3,1.94c-0.18,0.63 -0.43,0.94 -0.75,0.94l-34.85,0c-0.32,0 -0.59,-0.31 -0.83,-0.94c-0.25,-0.62 -0.36,-1.27 -0.36,-1.94c0,-0.66 0.16,-1 0.48,-1c3.21,-0.46 5.65,-1.46 7.33,-2.98c1.69,-1.53 2.53,-4.05 2.53,-7.58l0,-52.7c0,-3.52 -0.82,-6.1 -2.47,-7.74c-1.65,-1.64 -4.11,-2.89 -7.39,-3.76c-0.48,-0.16 -0.62,-0.84 -0.42,-2.05c0.2,-1.22 0.57,-1.78 1.13,-1.7c3.67,0.47 8.17,0.7 13.48,0.7c2.98,0 6.85,-0.11 11.62,-0.34c4.77,-0.24 8.06,-0.36 9.86,-0.36c4.62,0 8.84,0.45 12.68,1.34c3.84,0.9 7.3,2.31 10.39,4.22c3.09,1.92 5.5,4.54 7.22,7.88c1.72,3.32 2.59,7.21 2.59,11.67zm-35.58,-19.25c-3.75,0 -6.35,0.71 -7.8,2.12c-1.45,1.41 -2.17,3.83 -2.17,7.27l0,29.94c10.41,1.48 18.23,0.87 23.47,-1.83c5.25,-2.7 7.88,-7.88 7.88,-15.55c0,-7.04 -2,-12.46 -6,-16.25c-4,-3.8 -9.12,-5.7 -15.38,-5.7zm0,0" id="svg_5"/>
    </g>
   </g>
  </g>
  <g fill="#353564" id="svg_6">
   <g id="svg_7" transform="translate(72.2907 130.5)">
    <g id="svg_8">
     <path d="m110.8,-34.81c0.47,0 0.68,0.51 0.64,1.53c-0.05,1.01 -0.26,1.59 -0.64,1.75c-2.51,0.78 -5.1,1.23 -7.77,1.34c-2.65,0.13 -5.47,-0.49 -8.44,-1.86c-2.96,-1.37 -5.51,-3.47 -7.62,-6.29l-18.2,-23.36c-2.27,-2.97 -4.92,-4.96 -7.97,-5.97c-3.06,-1.02 -6.93,-1.57 -11.63,-1.66l0,22.89c0,3.76 1.07,6.33 3.22,7.71c2.16,1.36 5.5,2.32 10.05,2.85c0.22,0 0.34,0.34 0.34,1c0,0.67 -0.1,1.32 -0.3,1.94c-0.18,0.63 -0.43,0.94 -0.75,0.94l-34.85,0c-0.32,0 -0.59,-0.31 -0.83,-0.94c-0.25,-0.62 -0.36,-1.27 -0.36,-1.94c0,-0.66 0.16,-1 0.48,-1c3.21,-0.46 5.65,-1.46 7.33,-2.98c1.69,-1.53 2.53,-4.05 2.53,-7.58l0,-52.7c0,-3.52 -0.82,-6.1 -2.47,-7.74c-1.65,-1.64 -4.11,-2.89 -7.39,-3.76c-0.48,-0.16 -0.62,-0.84 -0.42,-2.05c0.2,-1.22 0.57,-1.78 1.13,-1.7c3.67,0.47 8.17,0.7 13.48,0.7c3.05,0 7,-0.11 11.86,-0.34c4.85,-0.24 8.1,-0.36 9.75,-0.36c9,0 16.14,1.86 21.42,5.58c5.28,3.71 7.92,9.08 7.92,16.12c0,6.35 -2.11,11.36 -6.34,15.03c-4.23,3.68 -9,5.68 -14.31,5.99l0,0.59c2.25,0 4.32,0.61 6.2,1.81c1.88,1.22 4.08,3.39 6.58,6.52l17.73,22.19c3.05,3.83 6.26,5.75 9.63,5.75zm-58.11,-39.67c9.08,0 15.47,-1.06 19.19,-3.18c3.71,-2.11 5.57,-6.1 5.57,-11.97c0,-6.03 -1.76,-10.68 -5.28,-13.96c-3.52,-3.29 -8.06,-4.94 -13.61,-4.94c-3.45,0 -5.87,0.73 -7.28,2.17c-1.4,1.45 -2.11,3.86 -2.11,7.22l0,24.66l3.52,0zm0,0" id="svg_9"/>
    </g>
   </g>
  </g>
  <g fill="#353564" id="svg_10">
   <g id="svg_11" transform="translate(154.922 130.5)">
    <g id="svg_12">
     <path d="m69.7,-30.12c-12.2,0 -22.29,-4.03 -30.28,-12.08c-7.98,-8.07 -11.97,-18.2 -11.97,-30.41c0,-12.13 3.93,-22.41 11.8,-30.81c7.86,-8.42 18.1,-12.63 30.7,-12.63c12.2,0 22.29,4.01 30.27,12.03c7.99,8.03 11.98,18.14 11.98,30.35c0,12.21 -3.93,22.52 -11.79,30.94c-7.87,8.4 -18.11,12.61 -30.71,12.61zm4.47,-7.63c2.9,0 5.71,-0.49 8.46,-1.47c2.73,-0.98 5.39,-2.54 7.98,-4.69c2.58,-2.15 4.66,-5.25 6.22,-9.28c1.56,-4.03 2.34,-8.74 2.34,-14.14c0,-11.65 -3.38,-21.41 -10.15,-29.28c-6.78,-7.86 -14.62,-11.8 -23.54,-11.8c-2.89,0 -5.69,0.5 -8.39,1.47c-2.7,0.97 -5.32,2.51 -7.87,4.63c-2.54,2.11 -4.59,5.18 -6.16,9.22c-1.56,4.03 -2.34,8.71 -2.34,14.03c0,11.73 3.36,21.54 10.09,29.45c6.73,7.91 14.52,11.86 23.36,11.86zm0,0" id="svg_13"/>
    </g>
   </g>
  </g>
  <g fill="#353564" id="svg_14">
   <g id="svg_15" transform="translate(243.07 130.5)">
    <g id="svg_16">
     <path d="m25.11,-31.77c-0.56,0.09 -0.93,-0.52 -1.13,-1.81c-0.18,-1.29 -0.04,-2.01 0.43,-2.17c2.03,-0.55 3.38,-0.91 4.04,-1.06c0.67,-0.16 1.71,-0.55 3.11,-1.17c1.41,-0.63 2.35,-1.29 2.82,-1.99c0.46,-0.71 0.95,-1.66 1.46,-2.87c0.51,-1.22 0.77,-2.7 0.77,-4.43l0,-52.34c0,-3.44 -0.88,-5.94 -2.64,-7.5c-1.76,-1.57 -4.2,-2.71 -7.33,-3.42c-0.47,-0.07 -0.61,-0.76 -0.42,-2.05c0.19,-1.29 0.53,-1.89 1,-1.81c4.92,0.47 15.02,0.7 30.28,0.7c3.13,0 6.27,-0.03 9.39,-0.11c3.13,-0.08 6.48,-0.18 10.03,-0.29c3.56,-0.13 6.4,-0.23 8.52,-0.3c1.33,0 2.13,0.43 2.4,1.3c0.27,0.85 0.21,1.95 -0.17,3.28l-2.81,11.03c-0.16,0.85 -0.77,1.28 -1.83,1.28c-1.05,0 -1.7,-0.43 -1.94,-1.28c-0.62,-2.11 -1.52,-3.77 -2.7,-4.99c-1.17,-1.21 -3.16,-2.21 -5.98,-3c-2.82,-0.78 -6.61,-1.17 -11.38,-1.17c-4.31,0 -7.27,0.61 -8.87,1.83c-1.61,1.21 -2.41,3.42 -2.41,6.63l0,20.42c0,1.4 0.31,2.36 0.94,2.87c0.63,0.51 1.61,0.77 2.94,0.77l2.46,0c11.35,0 18.98,-1.8 22.89,-5.41c0.63,-0.62 1.35,-0.8 2.18,-0.53c0.82,0.27 1,0.92 0.53,1.94l-6.81,14.79c-0.47,0.94 -1.06,1.41 -1.77,1.41c-0.7,0 -1.4,-0.43 -2.11,-1.3c-2.5,-3.52 -7.78,-5.28 -15.84,-5.28l-1.53,0c-1.33,0 -2.31,0.26 -2.94,0.77c-0.63,0.51 -0.94,1.47 -0.94,2.87l0,18.89c0,3.85 1,6.42 3,7.71c2,1.28 5.66,2.47 10.97,3.58c0.47,0.07 0.82,0.15 1.06,0.23c0.55,0.16 0.71,0.88 0.47,2.17c-0.24,1.29 -0.63,1.9 -1.17,1.81c-6.5,-0.46 -13.47,-0.7 -20.89,-0.7c-7.67,0 -13.7,0.24 -18.08,0.7zm0,0" id="svg_17"/>
    </g>
   </g>
  </g>
  <g fill="#d9bc27" id="svg_18">
   <g id="svg_19" transform="translate(305.875 130.5)">
    <g id="svg_20">
     <path d="m69.7,-30.12c-12.2,0 -22.29,-4.03 -30.28,-12.08c-7.98,-8.07 -11.97,-18.2 -11.97,-30.41c0,-12.13 3.93,-22.41 11.8,-30.81c7.86,-8.42 18.1,-12.63 30.7,-12.63c12.2,0 22.29,4.01 30.27,12.03c7.99,8.03 11.98,18.14 11.98,30.35c0,12.21 -3.93,22.52 -11.79,30.94c-7.87,8.4 -18.11,12.61 -30.71,12.61zm4.47,-7.63c2.9,0 5.71,-0.49 8.46,-1.47c2.73,-0.98 5.39,-2.54 7.98,-4.69c2.58,-2.15 4.66,-5.25 6.22,-9.28c1.56,-4.03 2.34,-8.74 2.34,-14.14c0,-11.65 -3.38,-21.41 -10.15,-29.28c-6.78,-7.86 -14.62,-11.8 -23.54,-11.8c-2.89,0 -5.69,0.5 -8.39,1.47c-2.7,0.97 -5.32,2.51 -7.87,4.63c-2.54,2.11 -4.59,5.18 -6.16,9.22c-1.56,4.03 -2.34,8.71 -2.34,14.03c0,11.73 3.36,21.54 10.09,29.45c6.73,7.91 14.52,11.86 23.36,11.86zm0,0" id="svg_21"/>
    </g>
   </g>
  </g>
  <g fill="#d9bc27" id="svg_22">
   <g id="svg_23" transform="translate(394.023 130.5)">
    <g id="svg_24">
     <path d="m94.72,-89.28c0,10.18 -4.25,17.51 -12.75,22.01c-8.49,4.5 -19.42,5.73 -32.8,3.69l0,17.14c0,3.76 1.07,6.33 3.22,7.71c2.16,1.36 5.5,2.32 10.05,2.85c0.22,0 0.34,0.34 0.34,1c0,0.67 -0.1,1.32 -0.3,1.94c-0.18,0.63 -0.43,0.94 -0.75,0.94l-34.85,0c-0.32,0 -0.59,-0.31 -0.83,-0.94c-0.25,-0.62 -0.36,-1.27 -0.36,-1.94c0,-0.66 0.16,-1 0.48,-1c3.21,-0.46 5.65,-1.46 7.33,-2.98c1.69,-1.53 2.53,-4.05 2.53,-7.58l0,-52.7c0,-3.52 -0.82,-6.1 -2.47,-7.74c-1.65,-1.64 -4.11,-2.89 -7.39,-3.76c-0.48,-0.16 -0.62,-0.84 -0.42,-2.05c0.2,-1.22 0.57,-1.78 1.13,-1.7c3.67,0.47 8.17,0.7 13.48,0.7c2.98,0 6.85,-0.11 11.62,-0.34c4.77,-0.24 8.06,-0.36 9.86,-0.36c4.62,0 8.84,0.45 12.68,1.34c3.84,0.9 7.3,2.31 10.39,4.22c3.09,1.92 5.5,4.54 7.22,7.88c1.72,3.32 2.59,7.21 2.59,11.67zm-35.58,-19.25c-3.75,0 -6.35,0.71 -7.8,2.12c-1.45,1.41 -2.17,3.83 -2.17,7.27l0,29.94c10.41,1.48 18.23,0.87 23.47,-1.83c5.25,-2.7 7.88,-7.88 7.88,-15.55c0,-7.04 -2,-12.46 -6,-16.25c-4,-3.8 -9.12,-5.7 -15.38,-5.7zm0,0" id="svg_25"/>
    </g>
   </g>
  </g>
  <g fill="#d9bc27" id="svg_26">
   <g id="svg_27" transform="translate(464.095 130.5)">
    <g id="svg_28">
     <path d="m26.88,-32c-0.32,0 -0.59,-0.31 -0.83,-0.94c-0.25,-0.62 -0.36,-1.27 -0.36,-1.94c0,-0.66 0.16,-1 0.48,-1c3.21,-0.46 5.65,-1.46 7.33,-2.98c1.69,-1.53 2.53,-4.05 2.53,-7.58l0,-53.4c0,-3.44 -0.84,-5.94 -2.53,-7.5c-1.68,-1.57 -4.12,-2.6 -7.33,-3.07c-0.32,0 -0.48,-0.31 -0.48,-0.93c0,-0.63 0.11,-1.25 0.36,-1.88c0.24,-0.62 0.51,-0.94 0.83,-0.94l31.32,0c0.32,0 0.59,0.32 0.82,0.94c0.23,0.63 0.36,1.25 0.36,1.88c0,0.62 -0.16,0.93 -0.47,0.93c-3.06,0.4 -5.44,1.32 -7.16,2.77c-1.72,1.44 -2.58,4.04 -2.58,7.8l0,53.4c0,3.76 0.86,6.37 2.58,7.81c1.72,1.45 4.1,2.37 7.16,2.75c0.31,0 0.47,0.34 0.47,1c0,0.67 -0.13,1.32 -0.36,1.94c-0.23,0.63 -0.5,0.94 -0.82,0.94l-31.32,0zm0,0" id="svg_29"/>
    </g>
   </g>
  </g>
  <g fill="#d9bc27" id="svg_30">
   <g id="svg_31" transform="translate(497.663 130.5)">
    <g id="svg_32">
     <path d="m103.28,-30.83c-1.49,0 -2.9,-0.74 -4.23,-2.23l-56.1,-59.5l0,45.89c0,3.6 0.88,6.07 2.64,7.4c1.76,1.33 4.6,2.46 8.5,3.39c0.47,0.09 0.61,0.75 0.41,2c-0.19,1.25 -0.56,1.88 -1.11,1.88l-27.22,0c-0.48,0 -0.84,-0.6 -1.08,-1.81c-0.23,-1.22 -0.07,-1.91 0.49,-2.07c1.4,-0.38 2.42,-0.69 3.05,-0.93c0.62,-0.24 1.46,-0.63 2.51,-1.17c1.06,-0.56 1.83,-1.16 2.3,-1.82c0.47,-0.66 0.89,-1.58 1.28,-2.76c0.39,-1.18 0.59,-2.55 0.59,-4.11l0,-46.02c0,-7.27 -1.52,-12.78 -4.58,-16.54c-1.25,-1.57 -1.87,-2.39 -1.87,-2.47c0,-0.63 0.19,-1.19 0.58,-1.69c0.39,-0.51 0.94,-0.77 1.65,-0.77l8.46,0c1.25,0 2.18,0.36 2.81,1.05l54.94,58.92l0,-45.42c0,-1.64 -0.24,-3.05 -0.71,-4.22c-0.46,-1.17 -0.92,-2.08 -1.36,-2.7c-0.43,-0.63 -1.3,-1.23 -2.64,-1.81c-1.32,-0.6 -2.26,-0.97 -2.81,-1.13c-0.55,-0.16 -1.73,-0.47 -3.51,-0.94c-0.47,-0.15 -0.61,-0.81 -0.43,-1.98c0.2,-1.18 0.57,-1.77 1.13,-1.77l27.11,0c0.55,0 0.92,0.59 1.11,1.77c0.19,1.17 0.06,1.83 -0.41,1.98c-1.87,0.56 -3.17,0.97 -3.87,1.24c-0.7,0.27 -1.64,0.79 -2.82,1.58c-1.18,0.78 -1.98,1.82 -2.4,3.11c-0.43,1.29 -0.64,2.91 -0.64,4.87l0,46.13c0,10.18 0.47,16.98 1.4,20.42c0.23,0.79 0.01,1.36 -0.65,1.7c-0.66,0.35 -1.5,0.53 -2.52,0.53zm0,0" id="svg_33"/>
    </g>
   </g>
  </g>
  <g fill="#d9bc27" id="svg_34">
   <g id="svg_35" transform="translate(587.102 130.5)">
    <g id="svg_36">
     <path d="m26.88,-32c-0.32,0 -0.59,-0.31 -0.83,-0.94c-0.25,-0.62 -0.36,-1.27 -0.36,-1.94c0,-0.66 0.16,-1 0.48,-1c3.21,-0.46 5.65,-1.46 7.33,-2.98c1.69,-1.53 2.53,-4.05 2.53,-7.58l0,-53.4c0,-3.44 -0.84,-5.94 -2.53,-7.5c-1.68,-1.57 -4.12,-2.6 -7.33,-3.07c-0.32,0 -0.48,-0.31 -0.48,-0.93c0,-0.63 0.11,-1.25 0.36,-1.88c0.24,-0.62 0.51,-0.94 0.83,-0.94l31.32,0c0.32,0 0.59,0.32 0.82,0.94c0.23,0.63 0.36,1.25 0.36,1.88c0,0.62 -0.16,0.93 -0.47,0.93c-3.06,0.4 -5.44,1.32 -7.16,2.77c-1.72,1.44 -2.58,4.04 -2.58,7.8l0,53.4c0,3.76 0.86,6.37 2.58,7.81c1.72,1.45 4.1,2.37 7.16,2.75c0.31,0 0.47,0.34 0.47,1c0,0.67 -0.13,1.32 -0.36,1.94c-0.23,0.63 -0.5,0.94 -0.82,0.94l-31.32,0zm0,0" id="svg_37"/>
    </g>
   </g>
  </g>
  <g fill="#d9bc27" id="svg_38">
   <g id="svg_39" transform="translate(620.671 130.5)">
    <g id="svg_40">
     <path d="m69.7,-30.12c-12.2,0 -22.29,-4.03 -30.28,-12.08c-7.98,-8.07 -11.97,-18.2 -11.97,-30.41c0,-12.13 3.93,-22.41 11.8,-30.81c7.86,-8.42 18.1,-12.63 30.7,-12.63c12.2,0 22.29,4.01 30.27,12.03c7.99,8.03 11.98,18.14 11.98,30.35c0,12.21 -3.93,22.52 -11.79,30.94c-7.87,8.4 -18.11,12.61 -30.71,12.61zm4.47,-7.63c2.9,0 5.71,-0.49 8.46,-1.47c2.73,-0.98 5.39,-2.54 7.98,-4.69c2.58,-2.15 4.66,-5.25 6.22,-9.28c1.56,-4.03 2.34,-8.74 2.34,-14.14c0,-11.65 -3.38,-21.41 -10.15,-29.28c-6.78,-7.86 -14.62,-11.8 -23.54,-11.8c-2.89,0 -5.69,0.5 -8.39,1.47c-2.7,0.97 -5.32,2.51 -7.87,4.63c-2.54,2.11 -4.59,5.18 -6.16,9.22c-1.56,4.03 -2.34,8.71 -2.34,14.03c0,11.73 3.36,21.54 10.09,29.45c6.73,7.91 14.52,11.86 23.36,11.86zm0,0" id="svg_41"/>
    </g>
   </g>
  </g>
  <g fill="#d9bc27" id="svg_42">
   <g id="svg_43" transform="translate(708.819 130.5)">
    <g id="svg_44">
     <path d="m103.28,-30.83c-1.49,0 -2.9,-0.74 -4.23,-2.23l-56.1,-59.5l0,45.89c0,3.6 0.88,6.07 2.64,7.4c1.76,1.33 4.6,2.46 8.5,3.39c0.47,0.09 0.61,0.75 0.41,2c-0.19,1.25 -0.56,1.88 -1.11,1.88l-27.22,0c-0.48,0 -0.84,-0.6 -1.08,-1.81c-0.23,-1.22 -0.07,-1.91 0.49,-2.07c1.4,-0.38 2.42,-0.69 3.05,-0.93c0.62,-0.24 1.46,-0.63 2.51,-1.17c1.06,-0.56 1.83,-1.16 2.3,-1.82c0.47,-0.66 0.89,-1.58 1.28,-2.76c0.39,-1.18 0.59,-2.55 0.59,-4.11l0,-46.02c0,-7.27 -1.52,-12.78 -4.58,-16.54c-1.25,-1.57 -1.87,-2.39 -1.87,-2.47c0,-0.63 0.19,-1.19 0.58,-1.69c0.39,-0.51 0.94,-0.77 1.65,-0.77l8.46,0c1.25,0 2.18,0.36 2.81,1.05l54.94,58.92l0,-45.42c0,-1.64 -0.24,-3.05 -0.71,-4.22c-0.46,-1.17 -0.92,-2.08 -1.36,-2.7c-0.43,-0.63 -1.3,-1.23 -2.64,-1.81c-1.32,-0.6 -2.26,-0.97 -2.81,-1.13c-0.55,-0.16 -1.73,-0.47 -3.51,-0.94c-0.47,-0.15 -0.61,-0.81 -0.43,-1.98c0.2,-1.18 0.57,-1.77 1.13,-1.77l27.11,0c0.55,0 0.92,0.59 1.11,1.77c0.19,1.17 0.06,1.83 -0.41,1.98c-1.87,0.56 -3.17,0.97 -3.87,1.24c-0.7,0.27 -1.64,0.79 -2.82,1.58c-1.18,0.78 -1.98,1.82 -2.4,3.11c-0.43,1.29 -0.64,2.91 -0.64,4.87l0,46.13c0,10.18 0.47,16.98 1.4,20.42c0.23,0.79 0.01,1.36 -0.65,1.7c-0.66,0.35 -1.5,0.53 -2.52,0.53zm0,0" id="svg_45"/>
    </g>
   </g>
  </g>
  <g fill="#000000" id="svg_46">
   <g id="svg_47" transform="translate(52.6368 173.876)">
    <g id="svg_48">
     <path d="m21.98,-32c-0.16,0 -0.26,-0.14 -0.29,-0.44c-0.03,-0.29 0.04,-0.44 0.2,-0.45c0.6,-0.11 1.1,-0.35 1.49,-0.72c0.38,-0.37 0.82,-1.1 1.31,-2.19l4.59,-10.51c0.93,-2.08 1.39,-3.6 1.39,-4.57c0,-0.09 0.32,-0.2 0.96,-0.34c0.64,-0.13 0.98,-0.16 1.03,-0.06l6.62,15.45c0.47,1.11 0.89,1.85 1.27,2.24c0.38,0.37 0.86,0.61 1.43,0.7c0.19,0.01 0.27,0.16 0.24,0.45c-0.02,0.3 -0.12,0.44 -0.28,0.44l-6.99,0c-0.18,0 -0.27,-0.14 -0.28,-0.44c-0.01,-0.29 0.06,-0.44 0.21,-0.45c0.31,-0.06 0.56,-0.13 0.75,-0.22c0.18,-0.09 0.36,-0.23 0.53,-0.42c0.17,-0.19 0.24,-0.47 0.2,-0.85c-0.03,-0.38 -0.16,-0.85 -0.39,-1.42l-0.36,-0.81c-0.13,-0.29 -0.31,-0.48 -0.55,-0.56c-0.23,-0.08 -0.59,-0.13 -1.08,-0.13l-5.59,0c-0.47,0 -0.82,0.05 -1.06,0.13c-0.24,0.08 -0.42,0.27 -0.52,0.56l-0.33,0.81c-0.24,0.57 -0.37,1.04 -0.4,1.42c-0.03,0.38 0.05,0.67 0.23,0.86c0.19,0.2 0.39,0.34 0.61,0.43c0.23,0.07 0.55,0.14 0.96,0.2c0.15,0.01 0.22,0.16 0.2,0.45c-0.01,0.3 -0.11,0.44 -0.28,0.44l-5.82,0zm6.57,-6.73l5.36,0c0.55,0 0.76,-0.15 0.64,-0.44l-3.32,-7.91l-3.34,7.91c-0.12,0.29 0.09,0.44 0.66,0.44zm0,0" id="svg_49"/>
    </g>
   </g>
  </g>
  <g fill="#000000" id="svg_50">
   <g id="svg_51" transform="translate(85.4394 173.876)">
    <g id="svg_52">
     <path d="m33.25,-31.56c-0.96,0 -1.92,-0.11 -2.89,-0.33c-0.96,-0.22 -1.92,-0.57 -2.88,-1.06c-0.96,-0.5 -1.8,-1.11 -2.54,-1.83c-0.73,-0.72 -1.32,-1.63 -1.77,-2.74c-0.45,-1.1 -0.67,-2.32 -0.67,-3.65c0,-0.98 0.11,-1.94 0.34,-2.88c0.24,-0.94 0.63,-1.86 1.18,-2.76c0.53,-0.9 1.2,-1.68 1.98,-2.36c0.78,-0.68 1.77,-1.22 2.97,-1.64c1.21,-0.42 2.53,-0.63 3.98,-0.63c1.01,0 1.97,0.1 2.88,0.28c0.9,0.19 1.6,0.44 2.09,0.74c0.49,0.29 0.68,0.59 0.56,0.9l-0.34,1c-0.17,0.54 -0.36,0.86 -0.58,0.99c-0.22,0.12 -0.51,0.1 -0.87,-0.06c-0.36,-0.18 -0.74,-0.4 -1.16,-0.66c-0.42,-0.26 -1.01,-0.51 -1.78,-0.75c-0.77,-0.24 -1.59,-0.36 -2.44,-0.36c-1.92,0 -3.38,0.59 -4.39,1.75c-1.01,1.16 -1.51,2.76 -1.51,4.8c0,1.45 0.25,2.76 0.76,3.92c0.52,1.16 1.2,2.07 2.03,2.75c0.84,0.68 1.74,1.19 2.71,1.55c0.97,0.35 1.97,0.53 2.97,0.53c0.37,0 1.02,-0.12 1.95,-0.36c0.94,-0.25 1.74,-0.58 2.42,-1c0.1,-0.07 0.24,-0.01 0.42,0.2c0.19,0.21 0.24,0.38 0.17,0.5c-0.53,0.76 -1.46,1.48 -2.81,2.16c-1.33,0.66 -2.26,1 -2.78,1zm0,0" id="svg_53"/>
    </g>
   </g>
  </g>
  <g fill="#000000" id="svg_54">
   <g id="svg_55" transform="translate(115.554 173.876)">
    <g id="svg_56">
     <path d="m21.98,-32c-0.16,0 -0.26,-0.14 -0.29,-0.44c-0.03,-0.29 0.04,-0.44 0.2,-0.45c0.6,-0.11 1.1,-0.35 1.49,-0.72c0.38,-0.37 0.82,-1.1 1.31,-2.19l4.59,-10.51c0.93,-2.08 1.39,-3.6 1.39,-4.57c0,-0.09 0.32,-0.2 0.96,-0.34c0.64,-0.13 0.98,-0.16 1.03,-0.06l6.62,15.45c0.47,1.11 0.89,1.85 1.27,2.24c0.38,0.37 0.86,0.61 1.43,0.7c0.19,0.01 0.27,0.16 0.24,0.45c-0.02,0.3 -0.12,0.44 -0.28,0.44l-6.99,0c-0.18,0 -0.27,-0.14 -0.28,-0.44c-0.01,-0.29 0.06,-0.44 0.21,-0.45c0.31,-0.06 0.56,-0.13 0.75,-0.22c0.18,-0.09 0.36,-0.23 0.53,-0.42c0.17,-0.19 0.24,-0.47 0.2,-0.85c-0.03,-0.38 -0.16,-0.85 -0.39,-1.42l-0.36,-0.81c-0.13,-0.29 -0.31,-0.48 -0.55,-0.56c-0.23,-0.08 -0.59,-0.13 -1.08,-0.13l-5.59,0c-0.47,0 -0.82,0.05 -1.06,0.13c-0.24,0.08 -0.42,0.27 -0.52,0.56l-0.33,0.81c-0.24,0.57 -0.37,1.04 -0.4,1.42c-0.03,0.38 0.05,0.67 0.23,0.86c0.19,0.2 0.39,0.34 0.61,0.43c0.23,0.07 0.55,0.14 0.96,0.2c0.15,0.01 0.22,0.16 0.2,0.45c-0.01,0.3 -0.11,0.44 -0.28,0.44l-5.82,0zm6.57,-6.73l5.36,0c0.55,0 0.76,-0.15 0.64,-0.44l-3.32,-7.91l-3.34,7.91c-0.12,0.29 0.09,0.44 0.66,0.44zm0,0" id="svg_57"/>
    </g>
   </g>
  </g>
  <g fill="#000000" id="svg_58">
   <g id="svg_59" transform="translate(148.357 173.876)">
    <g id="svg_60">
     <path d="m21.95,-31.95c-0.12,0.02 -0.21,-0.12 -0.26,-0.41c-0.05,-0.3 -0.01,-0.47 0.09,-0.52c0.48,-0.12 0.79,-0.2 0.94,-0.23c0.16,-0.04 0.39,-0.13 0.72,-0.28c0.33,-0.15 0.55,-0.3 0.65,-0.45c0.12,-0.17 0.23,-0.39 0.35,-0.68c0.11,-0.28 0.17,-0.61 0.17,-1.01l0,-12.11c0,-0.8 -0.2,-1.38 -0.61,-1.72c-0.41,-0.35 -0.98,-0.62 -1.7,-0.81c-0.11,-0.01 -0.14,-0.17 -0.1,-0.47c0.05,-0.3 0.13,-0.44 0.24,-0.42c0.88,0.1 1.99,0.15 3.31,0.15c0.73,0 1.69,-0.02 2.89,-0.07c1.21,-0.06 2.02,-0.08 2.44,-0.08c3.22,0 5.71,0.85 7.47,2.54c1.77,1.69 2.65,3.89 2.65,6.61c0,1.8 -0.38,3.44 -1.14,4.93c-0.76,1.48 -1.93,2.68 -3.5,3.62c-1.56,0.94 -3.4,1.41 -5.51,1.41c-0.38,0 -1.12,-0.03 -2.22,-0.08c-1.11,-0.05 -2.01,-0.08 -2.7,-0.08c-1.8,0 -3.19,0.06 -4.18,0.16zm9.25,-1.38c2.28,0 4.01,-0.6 5.18,-1.81c1.17,-1.22 1.76,-2.99 1.76,-5.33c0,-2.64 -0.7,-4.83 -2.11,-6.58c-1.4,-1.75 -3.33,-2.62 -5.76,-2.62c-0.98,0 -1.67,0.15 -2.05,0.47c-0.38,0.31 -0.56,0.83 -0.56,1.56l0,12.11c0,0.76 0.27,1.32 0.81,1.67c0.54,0.36 1.45,0.53 2.73,0.53zm0,0" id="svg_61"/>
    </g>
   </g>
  </g>
  <g fill="#000000" id="svg_62">
   <g id="svg_63" transform="translate(180.806 173.876)">
    <g id="svg_64">
     <path d="m21.95,-31.95c-0.12,0.02 -0.21,-0.12 -0.26,-0.41c-0.05,-0.3 -0.01,-0.47 0.09,-0.52c0.48,-0.12 0.79,-0.2 0.94,-0.23c0.16,-0.04 0.39,-0.13 0.72,-0.28c0.33,-0.15 0.55,-0.3 0.65,-0.45c0.12,-0.17 0.23,-0.39 0.35,-0.68c0.11,-0.28 0.17,-0.61 0.17,-1.01l0,-12.11c0,-0.8 -0.2,-1.38 -0.61,-1.74c-0.41,-0.36 -0.98,-0.62 -1.7,-0.79c-0.11,-0.01 -0.14,-0.17 -0.1,-0.47c0.05,-0.3 0.13,-0.44 0.24,-0.42c1.14,0.1 3.48,0.15 7.01,0.15c0.72,0 1.44,0 2.16,-0.01c0.73,-0.02 1.5,-0.04 2.33,-0.06c0.82,-0.04 1.47,-0.06 1.97,-0.08c0.31,0 0.5,0.1 0.56,0.29c0.06,0.2 0.05,0.46 -0.05,0.77l-0.65,2.55c-0.04,0.2 -0.18,0.29 -0.43,0.29c-0.24,0 -0.38,-0.09 -0.43,-0.29c-0.15,-0.49 -0.36,-0.88 -0.63,-1.16c-0.27,-0.28 -0.73,-0.51 -1.39,-0.69c-0.65,-0.17 -1.52,-0.26 -2.62,-0.26c-1,0 -1.69,0.14 -2.07,0.42c-0.36,0.27 -0.54,0.78 -0.54,1.53l0,4.45c0,0.33 0.07,0.55 0.22,0.68c0.14,0.11 0.36,0.17 0.67,0.17l0.58,0c2.62,0 4.39,-0.42 5.29,-1.25c0.13,-0.15 0.3,-0.19 0.49,-0.13c0.19,0.06 0.24,0.21 0.14,0.44l-1.58,3.42c-0.12,0.22 -0.26,0.33 -0.42,0.33c-0.16,0 -0.32,-0.1 -0.49,-0.3c-0.57,-0.81 -1.79,-1.22 -3.65,-1.22l-0.36,0c-0.31,0 -0.53,0.07 -0.67,0.19c-0.15,0.12 -0.22,0.34 -0.22,0.66l0,4.64c0,0.78 0.2,1.33 0.62,1.64c0.43,0.3 1.21,0.45 2.36,0.45c3.11,0 5.25,-0.97 6.41,-2.9c0.07,-0.12 0.18,-0.18 0.33,-0.18c0.14,0 0.27,0.03 0.39,0.11c0.12,0.08 0.18,0.19 0.18,0.33c0,0.84 -0.28,1.73 -0.84,2.69c-0.56,0.96 -1.22,1.44 -1.98,1.44c-1.92,-0.1 -3.7,-0.16 -5.33,-0.16c-4.13,0 -6.75,0.06 -7.85,0.16zm0,0" id="svg_65"/>
    </g>
   </g>
  </g>
  <g fill="#000000" id="svg_66">
   <g id="svg_67" transform="translate(209.726 173.876)">
    <g id="svg_68">
     <path d="m46.14,-32.89c0.07,0 0.11,0.08 0.11,0.23c0,0.15 -0.03,0.3 -0.08,0.44c-0.05,0.15 -0.1,0.22 -0.15,0.22l-6.88,0c-0.05,0 -0.11,-0.08 -0.17,-0.23c-0.06,-0.16 -0.08,-0.3 -0.08,-0.43c0,-0.12 0.03,-0.2 0.09,-0.23c1.32,-0.2 1.93,-1.02 1.86,-2.45l-0.48,-9.43l-4.59,9.27c-0.6,1.26 -0.95,2.18 -1.05,2.77c-0.06,0.32 -0.39,0.48 -0.99,0.48c-0.37,0 -0.64,-0.16 -0.81,-0.48l-6.36,-12.08l-0.4,9.47c-0.08,1.46 0.55,2.29 1.87,2.45c0.07,0 0.11,0.08 0.11,0.23c0,0.15 -0.03,0.3 -0.08,0.44c-0.05,0.15 -0.11,0.22 -0.18,0.22l-5.52,0c-0.07,0 -0.14,-0.07 -0.19,-0.22c-0.05,-0.14 -0.08,-0.29 -0.08,-0.44c0,-0.15 0.04,-0.23 0.1,-0.23c0.69,-0.07 1.24,-0.28 1.62,-0.63c0.39,-0.34 0.6,-0.95 0.66,-1.82l0.84,-15.64c0.02,-0.22 0.21,-0.33 0.55,-0.33c0.34,-0.01 0.58,0.1 0.7,0.33l7.91,14.82l7.33,-14.82c0.11,-0.23 0.34,-0.34 0.7,-0.33c0.35,0 0.54,0.12 0.55,0.36l0.87,15.61c0.03,0.87 0.24,1.48 0.61,1.82c0.38,0.35 0.92,0.56 1.61,0.63zm0,0" id="svg_69"/>
    </g>
   </g>
  </g>
  <g fill="#000000" id="svg_70">
   <g id="svg_71" transform="translate(246.955 173.876)">
    <g id="svg_72">
     <path d="m22.36,-32c-0.07,0 -0.14,-0.07 -0.19,-0.22c-0.05,-0.14 -0.08,-0.29 -0.08,-0.44c0,-0.15 0.04,-0.23 0.1,-0.23c0.75,-0.11 1.31,-0.35 1.7,-0.7c0.38,-0.36 0.58,-0.94 0.58,-1.75l0,-12.36c0,-0.79 -0.2,-1.37 -0.58,-1.74c-0.39,-0.36 -0.95,-0.6 -1.7,-0.7c-0.06,0 -0.1,-0.07 -0.1,-0.22c0,-0.14 0.03,-0.29 0.08,-0.44c0.05,-0.14 0.12,-0.22 0.19,-0.22l7.25,0c0.07,0 0.13,0.08 0.19,0.22c0.05,0.15 0.08,0.3 0.08,0.44c0,0.15 -0.04,0.22 -0.11,0.22c-0.7,0.09 -1.25,0.31 -1.66,0.64c-0.4,0.34 -0.59,0.93 -0.59,1.8l0,12.36c0,0.87 0.19,1.48 0.59,1.81c0.41,0.33 0.96,0.55 1.66,0.64c0.07,0 0.11,0.08 0.11,0.23c0,0.15 -0.03,0.3 -0.08,0.44c-0.06,0.15 -0.12,0.22 -0.19,0.22l-7.25,0zm0,0" id="svg_73"/>
    </g>
   </g>
  </g>
  <g fill="#000000" id="svg_74">
   <g id="svg_75" transform="translate(267.81 173.876)">
    <g id="svg_76">
     <path d="m33.25,-31.56c-0.96,0 -1.92,-0.11 -2.89,-0.33c-0.96,-0.22 -1.92,-0.57 -2.88,-1.06c-0.96,-0.5 -1.8,-1.11 -2.54,-1.83c-0.73,-0.72 -1.32,-1.63 -1.77,-2.74c-0.45,-1.1 -0.67,-2.32 -0.67,-3.65c0,-0.98 0.11,-1.94 0.34,-2.88c0.24,-0.94 0.63,-1.86 1.18,-2.76c0.53,-0.9 1.2,-1.68 1.98,-2.36c0.78,-0.68 1.77,-1.22 2.97,-1.64c1.21,-0.42 2.53,-0.63 3.98,-0.63c1.01,0 1.97,0.1 2.88,0.28c0.9,0.19 1.6,0.44 2.09,0.74c0.49,0.29 0.68,0.59 0.56,0.9l-0.34,1c-0.17,0.54 -0.36,0.86 -0.58,0.99c-0.22,0.12 -0.51,0.1 -0.87,-0.06c-0.36,-0.18 -0.74,-0.4 -1.16,-0.66c-0.42,-0.26 -1.01,-0.51 -1.78,-0.75c-0.77,-0.24 -1.59,-0.36 -2.44,-0.36c-1.92,0 -3.38,0.59 -4.39,1.75c-1.01,1.16 -1.51,2.76 -1.51,4.8c0,1.45 0.25,2.76 0.76,3.92c0.52,1.16 1.2,2.07 2.03,2.75c0.84,0.68 1.74,1.19 2.71,1.55c0.97,0.35 1.97,0.53 2.97,0.53c0.37,0 1.02,-0.12 1.95,-0.36c0.94,-0.25 1.74,-0.58 2.42,-1c0.1,-0.07 0.24,-0.01 0.42,0.2c0.19,0.21 0.24,0.38 0.17,0.5c-0.53,0.76 -1.46,1.48 -2.81,2.16c-1.33,0.66 -2.26,1 -2.78,1zm0,0" id="svg_77"/>
    </g>
   </g>
  </g>
  <g fill="#000000" id="svg_78">
   <g id="svg_79" transform="translate(297.925 173.876)">
    <g id="svg_80"/>
   </g>
  </g>
  <g fill="#000000" id="svg_81">
   <g id="svg_82" transform="translate(314.11 173.876)">
    <g id="svg_83">
     <path d="m41.78,-32.66c0.1,0 0.15,0.12 0.14,0.36c-0.01,0.23 -0.06,0.37 -0.14,0.41c-0.58,0.18 -1.18,0.28 -1.8,0.31c-0.61,0.03 -1.26,-0.11 -1.95,-0.42c-0.69,-0.32 -1.28,-0.81 -1.76,-1.47l-4.22,-5.41c-0.53,-0.68 -1.14,-1.14 -1.85,-1.37c-0.71,-0.24 -1.6,-0.37 -2.68,-0.39l0,5.3c0,0.87 0.25,1.46 0.75,1.78c0.5,0.31 1.27,0.54 2.32,0.67c0.05,0 0.08,0.08 0.08,0.23c0,0.15 -0.03,0.3 -0.08,0.44c-0.04,0.15 -0.1,0.22 -0.17,0.22l-8.06,0c-0.07,0 -0.14,-0.07 -0.19,-0.22c-0.05,-0.14 -0.08,-0.29 -0.08,-0.44c0,-0.15 0.04,-0.23 0.1,-0.23c0.75,-0.11 1.31,-0.35 1.7,-0.7c0.38,-0.36 0.58,-0.94 0.58,-1.75l0,-12.19c0,-0.81 -0.2,-1.41 -0.58,-1.78c-0.37,-0.39 -0.94,-0.68 -1.7,-0.88c-0.11,-0.04 -0.14,-0.2 -0.1,-0.48c0.05,-0.28 0.14,-0.41 0.27,-0.39c0.85,0.1 1.89,0.15 3.12,0.15c0.71,0 1.62,-0.02 2.74,-0.07c1.12,-0.06 1.88,-0.08 2.26,-0.08c2.07,0 3.72,0.43 4.94,1.29c1.23,0.86 1.85,2.1 1.85,3.72c0,1.47 -0.5,2.64 -1.47,3.49c-0.98,0.85 -2.09,1.32 -3.32,1.39l0,0.12c0.54,0 1.01,0.14 1.44,0.42c0.44,0.29 0.95,0.79 1.53,1.52l4.1,5.13c0.7,0.88 1.45,1.32 2.23,1.32zm-13.45,-9.17c2.1,0 3.58,-0.24 4.44,-0.73c0.86,-0.49 1.29,-1.41 1.29,-2.77c0,-1.39 -0.4,-2.47 -1.22,-3.23c-0.81,-0.76 -1.86,-1.14 -3.15,-1.14c-0.8,0 -1.36,0.16 -1.69,0.5c-0.32,0.33 -0.48,0.89 -0.48,1.67l0,5.7l0.81,0zm0,0" id="svg_84"/>
    </g>
   </g>
  </g>
  <g fill="#000000" id="svg_85">
   <g id="svg_86" transform="translate(346.316 173.876)">
    <g id="svg_87">
     <path d="m21.95,-31.95c-0.12,0.02 -0.21,-0.12 -0.26,-0.41c-0.05,-0.3 -0.01,-0.47 0.09,-0.52c0.48,-0.12 0.79,-0.2 0.94,-0.23c0.16,-0.04 0.39,-0.13 0.72,-0.28c0.33,-0.15 0.55,-0.3 0.65,-0.45c0.12,-0.17 0.23,-0.39 0.35,-0.68c0.11,-0.28 0.17,-0.61 0.17,-1.01l0,-12.11c0,-0.8 -0.2,-1.38 -0.61,-1.74c-0.41,-0.36 -0.98,-0.62 -1.7,-0.79c-0.11,-0.01 -0.14,-0.17 -0.1,-0.47c0.05,-0.3 0.13,-0.44 0.24,-0.42c1.14,0.1 3.48,0.15 7.01,0.15c0.72,0 1.44,0 2.16,-0.01c0.73,-0.02 1.5,-0.04 2.33,-0.06c0.82,-0.04 1.47,-0.06 1.97,-0.08c0.31,0 0.5,0.1 0.56,0.29c0.06,0.2 0.05,0.46 -0.05,0.77l-0.65,2.55c-0.04,0.2 -0.18,0.29 -0.43,0.29c-0.24,0 -0.38,-0.09 -0.43,-0.29c-0.15,-0.49 -0.36,-0.88 -0.63,-1.16c-0.27,-0.28 -0.73,-0.51 -1.39,-0.69c-0.65,-0.17 -1.52,-0.26 -2.62,-0.26c-1,0 -1.69,0.14 -2.07,0.42c-0.36,0.27 -0.54,0.78 -0.54,1.53l0,4.45c0,0.33 0.07,0.55 0.22,0.68c0.14,0.11 0.36,0.17 0.67,0.17l0.58,0c2.62,0 4.39,-0.42 5.29,-1.25c0.13,-0.15 0.3,-0.19 0.49,-0.13c0.19,0.06 0.24,0.21 0.14,0.44l-1.58,3.42c-0.12,0.22 -0.26,0.33 -0.42,0.33c-0.16,0 -0.32,-0.1 -0.49,-0.3c-0.57,-0.81 -1.79,-1.22 -3.65,-1.22l-0.36,0c-0.31,0 -0.53,0.07 -0.67,0.19c-0.15,0.12 -0.22,0.34 -0.22,0.66l0,4.64c0,0.78 0.2,1.33 0.62,1.64c0.43,0.3 1.21,0.45 2.36,0.45c3.11,0 5.25,-0.97 6.41,-2.9c0.07,-0.12 0.18,-0.18 0.33,-0.18c0.14,0 0.27,0.03 0.39,0.11c0.12,0.08 0.18,0.19 0.18,0.33c0,0.84 -0.28,1.73 -0.84,2.69c-0.56,0.96 -1.22,1.44 -1.98,1.44c-1.92,-0.1 -3.7,-0.16 -5.33,-0.16c-4.13,0 -6.75,0.06 -7.85,0.16zm0,0" id="svg_88"/>
    </g>
   </g>
  </g>
  <g fill="#000000" id="svg_89">
   <g id="svg_90" transform="translate(375.235 173.876)">
    <g id="svg_91">
     <path d="m42.08,-51.02c0.15,0 0.25,0.15 0.28,0.44c0.03,0.29 -0.05,0.45 -0.23,0.47c-0.6,0.09 -1.1,0.32 -1.5,0.7c-0.4,0.38 -0.83,1.11 -1.27,2.21l-4.59,10.64c-0.92,2.15 -1.38,3.68 -1.38,4.56c0,0.09 -0.32,0.21 -0.95,0.34c-0.64,0.14 -0.98,0.16 -1.02,0.07l-6.59,-15.6c-0.47,-1.1 -0.91,-1.84 -1.31,-2.22c-0.4,-0.38 -0.89,-0.61 -1.49,-0.7c-0.18,-0.02 -0.26,-0.18 -0.23,-0.47c0.03,-0.29 0.13,-0.44 0.31,-0.44l6.95,0c0.19,0 0.29,0.15 0.32,0.44c0.03,0.29 -0.05,0.45 -0.24,0.47c-0.3,0.06 -0.55,0.13 -0.73,0.22c-0.18,0.09 -0.36,0.23 -0.52,0.44c-0.16,0.2 -0.22,0.49 -0.19,0.87c0.04,0.38 0.18,0.84 0.41,1.38l4.7,11.37l4.75,-11.37c0.24,-0.57 0.37,-1.03 0.39,-1.41c0.03,-0.38 -0.05,-0.67 -0.25,-0.86c-0.18,-0.19 -0.39,-0.33 -0.61,-0.41c-0.21,-0.08 -0.5,-0.16 -0.89,-0.23c-0.18,-0.02 -0.25,-0.18 -0.23,-0.47c0.03,-0.29 0.13,-0.44 0.31,-0.44l5.8,0zm0,0" id="svg_92"/>
    </g>
   </g>
  </g>
  <g fill="#000000" id="svg_93">
   <g id="svg_94" transform="translate(408.31 173.876)">
    <g id="svg_95">
     <path d="m22.36,-32c-0.07,0 -0.14,-0.07 -0.19,-0.22c-0.05,-0.14 -0.08,-0.29 -0.08,-0.44c0,-0.15 0.04,-0.23 0.1,-0.23c0.75,-0.11 1.31,-0.35 1.7,-0.7c0.38,-0.36 0.58,-0.94 0.58,-1.75l0,-12.36c0,-0.79 -0.2,-1.37 -0.58,-1.74c-0.39,-0.36 -0.95,-0.6 -1.7,-0.7c-0.06,0 -0.1,-0.07 -0.1,-0.22c0,-0.14 0.03,-0.29 0.08,-0.44c0.05,-0.14 0.12,-0.22 0.19,-0.22l7.25,0c0.07,0 0.13,0.08 0.19,0.22c0.05,0.15 0.08,0.3 0.08,0.44c0,0.15 -0.04,0.22 -0.11,0.22c-0.7,0.09 -1.25,0.31 -1.66,0.64c-0.4,0.34 -0.59,0.93 -0.59,1.8l0,12.36c0,0.87 0.19,1.48 0.59,1.81c0.41,0.33 0.96,0.55 1.66,0.64c0.07,0 0.11,0.08 0.11,0.23c0,0.15 -0.03,0.3 -0.08,0.44c-0.06,0.15 -0.12,0.22 -0.19,0.22l-7.25,0zm0,0" id="svg_96"/>
    </g>
   </g>
  </g>
  <g fill="#000000" id="svg_97">
   <g id="svg_98" transform="translate(429.165 173.876)">
    <g id="svg_99">
     <path d="m21.95,-31.95c-0.12,0.02 -0.21,-0.12 -0.26,-0.41c-0.05,-0.3 -0.01,-0.47 0.09,-0.52c0.48,-0.12 0.79,-0.2 0.94,-0.23c0.16,-0.04 0.39,-0.13 0.72,-0.28c0.33,-0.15 0.55,-0.3 0.65,-0.45c0.12,-0.17 0.23,-0.39 0.35,-0.68c0.11,-0.28 0.17,-0.61 0.17,-1.01l0,-12.11c0,-0.8 -0.2,-1.38 -0.61,-1.74c-0.41,-0.36 -0.98,-0.62 -1.7,-0.79c-0.11,-0.01 -0.14,-0.17 -0.1,-0.47c0.05,-0.3 0.13,-0.44 0.24,-0.42c1.14,0.1 3.48,0.15 7.01,0.15c0.72,0 1.44,0 2.16,-0.01c0.73,-0.02 1.5,-0.04 2.33,-0.06c0.82,-0.04 1.47,-0.06 1.97,-0.08c0.31,0 0.5,0.1 0.56,0.29c0.06,0.2 0.05,0.46 -0.05,0.77l-0.65,2.55c-0.04,0.2 -0.18,0.29 -0.43,0.29c-0.24,0 -0.38,-0.09 -0.43,-0.29c-0.15,-0.49 -0.36,-0.88 -0.63,-1.16c-0.27,-0.28 -0.73,-0.51 -1.39,-0.69c-0.65,-0.17 -1.52,-0.26 -2.62,-0.26c-1,0 -1.69,0.14 -2.07,0.42c-0.36,0.27 -0.54,0.78 -0.54,1.53l0,4.45c0,0.33 0.07,0.55 0.22,0.68c0.14,0.11 0.36,0.17 0.67,0.17l0.58,0c2.62,0 4.39,-0.42 5.29,-1.25c0.13,-0.15 0.3,-0.19 0.49,-0.13c0.19,0.06 0.24,0.21 0.14,0.44l-1.58,3.42c-0.12,0.22 -0.26,0.33 -0.42,0.33c-0.16,0 -0.32,-0.1 -0.49,-0.3c-0.57,-0.81 -1.79,-1.22 -3.65,-1.22l-0.36,0c-0.31,0 -0.53,0.07 -0.67,0.19c-0.15,0.12 -0.22,0.34 -0.22,0.66l0,4.64c0,0.78 0.2,1.33 0.62,1.64c0.43,0.3 1.21,0.45 2.36,0.45c3.11,0 5.25,-0.97 6.41,-2.9c0.07,-0.12 0.18,-0.18 0.33,-0.18c0.14,0 0.27,0.03 0.39,0.11c0.12,0.08 0.18,0.19 0.18,0.33c0,0.84 -0.28,1.73 -0.84,2.69c-0.56,0.96 -1.22,1.44 -1.98,1.44c-1.92,-0.1 -3.7,-0.16 -5.33,-0.16c-4.13,0 -6.75,0.06 -7.85,0.16zm0,0" id="svg_100"/>
    </g>
   </g>
  </g>
  <g fill="#000000" id="svg_101">
   <g id="svg_102" transform="translate(458.085 173.876)">
    <g id="svg_103">
     <path d="m51.22,-51.02c0.19,0 0.29,0.15 0.31,0.44c0.03,0.29 -0.04,0.45 -0.22,0.47c-0.63,0.09 -1.16,0.32 -1.58,0.7c-0.41,0.38 -0.84,1.11 -1.28,2.21l-4.09,10.59c-0.88,2.22 -1.31,3.76 -1.31,4.61c0,0.09 -0.33,0.21 -0.97,0.34c-0.64,0.14 -0.98,0.16 -1.02,0.07l-4.25,-10.93l-2.5,5.91c-0.87,2.02 -1.31,3.56 -1.31,4.61c0,0.09 -0.33,0.21 -0.98,0.34c-0.65,0.14 -0.99,0.16 -1.02,0.07l-6.14,-15.6c-0.44,-1.08 -0.87,-1.81 -1.3,-2.2c-0.43,-0.4 -0.93,-0.63 -1.53,-0.72c-0.18,-0.02 -0.26,-0.18 -0.23,-0.47c0.03,-0.29 0.13,-0.44 0.31,-0.44l6.87,0c0.18,0 0.28,0.15 0.3,0.44c0.02,0.29 -0.05,0.45 -0.22,0.47c-0.45,0.07 -0.78,0.2 -1,0.38c-0.22,0.16 -0.36,0.45 -0.43,0.85c-0.08,0.41 0.04,0.97 0.35,1.68l4.4,11.34l2.79,-6.66c0.33,-0.73 0.5,-1.37 0.5,-1.92c0.01,-0.54 -0.16,-1.3 -0.51,-2.28l-0.03,-0.05c-0.47,-1.17 -0.88,-2 -1.25,-2.46c-0.37,-0.48 -0.75,-0.77 -1.15,-0.88c-0.16,-0.04 -0.24,-0.2 -0.21,-0.48c0.02,-0.29 0.11,-0.43 0.29,-0.43l5.14,0c0.23,0 0.35,0.08 0.35,0.22c0,0.03 -0.09,0.2 -0.27,0.53c-0.17,0.34 -0.27,0.72 -0.31,1.13c-0.03,0.41 0.08,1.05 0.36,1.94l4.33,11.18l4.25,-11.18c0.22,-0.57 0.34,-1.03 0.37,-1.39c0.04,-0.38 -0.02,-0.66 -0.19,-0.86c-0.15,-0.21 -0.34,-0.35 -0.56,-0.43c-0.22,-0.08 -0.53,-0.16 -0.92,-0.23c-0.15,-0.02 -0.21,-0.18 -0.19,-0.47c0.02,-0.29 0.11,-0.44 0.27,-0.44l5.78,0zm0,0" id="svg_104"/>
    </g>
   </g>
  </g>
  <g fill="#000000" id="svg_105">
   <g id="svg_106" transform="translate(500.31 173.876)">
    <g id="svg_107"/>
   </g>
  </g>
  <g fill="#000000" id="svg_108">
   <g id="svg_109" transform="translate(516.495 173.876)">
    <g id="svg_110">
     <path d="m38.05,-45.25c0,2.36 -0.99,4.05 -2.96,5.09c-1.96,1.05 -4.48,1.33 -7.57,0.85l0,3.97c0,0.87 0.25,1.46 0.75,1.78c0.5,0.31 1.27,0.54 2.32,0.67c0.05,0 0.08,0.08 0.08,0.23c0,0.15 -0.03,0.3 -0.08,0.44c-0.04,0.15 -0.1,0.22 -0.17,0.22l-8.06,0c-0.07,0 -0.14,-0.07 -0.19,-0.22c-0.05,-0.14 -0.08,-0.29 -0.08,-0.44c0,-0.15 0.04,-0.23 0.1,-0.23c0.75,-0.11 1.31,-0.35 1.7,-0.7c0.38,-0.36 0.58,-0.94 0.58,-1.75l0,-12.19c0,-0.81 -0.2,-1.41 -0.58,-1.78c-0.37,-0.39 -0.94,-0.68 -1.7,-0.88c-0.11,-0.04 -0.14,-0.2 -0.1,-0.48c0.05,-0.28 0.14,-0.41 0.27,-0.39c0.85,0.1 1.89,0.15 3.12,0.15c0.69,0 1.59,-0.02 2.69,-0.07c1.1,-0.06 1.87,-0.08 2.28,-0.08c1.07,0 2.04,0.1 2.93,0.31c0.89,0.21 1.69,0.54 2.4,0.98c0.72,0.44 1.27,1.05 1.67,1.82c0.4,0.77 0.6,1.67 0.6,2.7zm-8.22,-4.45c-0.88,0 -1.48,0.16 -1.81,0.48c-0.34,0.33 -0.5,0.89 -0.5,1.69l0,6.92c2.4,0.34 4.21,0.2 5.42,-0.42c1.22,-0.63 1.83,-1.82 1.83,-3.6c0,-1.63 -0.47,-2.89 -1.39,-3.76c-0.92,-0.88 -2.11,-1.31 -3.55,-1.31zm0,0" id="svg_111"/>
    </g>
   </g>
  </g>
  <g fill="#000000" id="svg_112">
   <g id="svg_113" transform="translate(545.795 173.876)">
    <g id="svg_114">
     <path d="m21.95,-31.95c-0.12,0.02 -0.21,-0.12 -0.26,-0.41c-0.05,-0.3 -0.01,-0.47 0.09,-0.52c0.48,-0.12 0.79,-0.2 0.94,-0.23c0.16,-0.04 0.39,-0.13 0.72,-0.28c0.33,-0.15 0.55,-0.3 0.65,-0.45c0.12,-0.17 0.23,-0.39 0.35,-0.68c0.11,-0.28 0.17,-0.61 0.17,-1.01l0,-12.17c0,-0.45 -0.06,-0.83 -0.19,-1.14c-0.12,-0.32 -0.31,-0.57 -0.54,-0.74c-0.24,-0.17 -0.47,-0.3 -0.71,-0.37c-0.24,-0.07 -0.53,-0.14 -0.87,-0.19c-0.08,0 -0.11,-0.07 -0.11,-0.22c0,-0.14 0.02,-0.29 0.08,-0.44c0.06,-0.14 0.11,-0.22 0.17,-0.22l7.31,0c0.07,0 0.13,0.08 0.17,0.22c0.04,0.15 0.06,0.3 0.06,0.44c0,0.15 -0.02,0.22 -0.07,0.22c-0.71,0.09 -1.27,0.31 -1.66,0.64c-0.4,0.34 -0.59,0.93 -0.59,1.8l0,12.17c0,0.78 0.2,1.33 0.62,1.64c0.43,0.3 1.21,0.45 2.36,0.45c3.11,0 5.25,-0.97 6.41,-2.9c0.07,-0.12 0.18,-0.18 0.33,-0.18c0.14,0 0.27,0.03 0.39,0.11c0.12,0.08 0.18,0.19 0.18,0.33c0,0.84 -0.28,1.73 -0.84,2.69c-0.56,0.96 -1.22,1.44 -1.98,1.44c-1.92,-0.1 -3.7,-0.16 -5.33,-0.16c-4.13,0 -6.75,0.06 -7.85,0.16zm0,0" id="svg_115"/>
    </g>
   </g>
  </g>
  <g fill="#000000" id="svg_116">
   <g id="svg_117" transform="translate(574.443 173.876)">
    <g id="svg_118">
     <path d="m21.98,-32c-0.16,0 -0.26,-0.14 -0.29,-0.44c-0.03,-0.29 0.04,-0.44 0.2,-0.45c0.6,-0.11 1.1,-0.35 1.49,-0.72c0.38,-0.37 0.82,-1.1 1.31,-2.19l4.59,-10.51c0.93,-2.08 1.39,-3.6 1.39,-4.57c0,-0.09 0.32,-0.2 0.96,-0.34c0.64,-0.13 0.98,-0.16 1.03,-0.06l6.62,15.45c0.47,1.11 0.89,1.85 1.27,2.24c0.38,0.37 0.86,0.61 1.43,0.7c0.19,0.01 0.27,0.16 0.24,0.45c-0.02,0.3 -0.12,0.44 -0.28,0.44l-6.99,0c-0.18,0 -0.27,-0.14 -0.28,-0.44c-0.01,-0.29 0.06,-0.44 0.21,-0.45c0.31,-0.06 0.56,-0.13 0.75,-0.22c0.18,-0.09 0.36,-0.23 0.53,-0.42c0.17,-0.19 0.24,-0.47 0.2,-0.85c-0.03,-0.38 -0.16,-0.85 -0.39,-1.42l-0.36,-0.81c-0.13,-0.29 -0.31,-0.48 -0.55,-0.56c-0.23,-0.08 -0.59,-0.13 -1.08,-0.13l-5.59,0c-0.47,0 -0.82,0.05 -1.06,0.13c-0.24,0.08 -0.42,0.27 -0.52,0.56l-0.33,0.81c-0.24,0.57 -0.37,1.04 -0.4,1.42c-0.03,0.38 0.05,0.67 0.23,0.86c0.19,0.2 0.39,0.34 0.61,0.43c0.23,0.07 0.55,0.14 0.96,0.2c0.15,0.01 0.22,0.16 0.2,0.45c-0.01,0.3 -0.11,0.44 -0.28,0.44l-5.82,0zm6.57,-6.73l5.36,0c0.55,0 0.76,-0.15 0.64,-0.44l-3.32,-7.91l-3.34,7.91c-0.12,0.29 0.09,0.44 0.66,0.44zm0,0" id="svg_119"/>
    </g>
   </g>
  </g>
  <g fill="#000000" id="svg_120">
   <g id="svg_121" transform="translate(607.246 173.876)">
    <g id="svg_122">
     <path d="m26.16,-32c-0.08,0 -0.14,-0.07 -0.21,-0.22c-0.06,-0.14 -0.09,-0.28 -0.09,-0.41c0,-0.12 0.03,-0.2 0.11,-0.25c1.05,-0.12 1.83,-0.32 2.34,-0.6c0.52,-0.29 0.78,-0.79 0.78,-1.47l0,-13.47c0,-0.35 -0.07,-0.6 -0.2,-0.72c-0.14,-0.13 -0.37,-0.19 -0.69,-0.19l-0.79,0c-2.5,0 -4.03,0.59 -4.57,1.77c-0.14,0.31 -0.39,0.43 -0.75,0.36c-0.21,-0.07 -0.3,-0.19 -0.28,-0.36c0.32,-1.32 0.53,-2.39 0.63,-3.21c0.02,-0.23 0.09,-0.37 0.22,-0.42c0.12,-0.04 0.33,-0.04 0.62,-0.01c1.07,0.12 3.56,0.18 7.47,0.18c4.34,0 7.08,-0.06 8.2,-0.18c0.3,-0.03 0.53,-0.03 0.68,0.01c0.14,0.05 0.17,0.19 0.1,0.42c-0.43,1.31 -0.71,2.38 -0.84,3.21c-0.03,0.24 -0.18,0.36 -0.44,0.36c-0.25,0 -0.4,-0.12 -0.45,-0.36c-0.24,-1.18 -1.51,-1.77 -3.8,-1.77l-0.9,0c-0.69,0 -1.03,0.31 -1.03,0.91l0,13.47c0,0.68 0.25,1.18 0.76,1.47c0.52,0.28 1.3,0.48 2.33,0.6c0.07,0.05 0.11,0.13 0.11,0.25c0,0.13 -0.03,0.27 -0.09,0.41c-0.07,0.15 -0.14,0.22 -0.21,0.22l-9.01,0zm0,0" id="svg_123"/>
    </g>
   </g>
  </g>
  <g fill="#000000" id="svg_124">
   <g id="svg_125" transform="translate(637.714 173.876)">
    <g id="svg_126">
     <path d="m21.95,-31.95c-0.12,0.02 -0.21,-0.12 -0.26,-0.41c-0.05,-0.3 -0.01,-0.47 0.09,-0.52c0.48,-0.12 0.79,-0.2 0.94,-0.23c0.16,-0.04 0.39,-0.13 0.72,-0.28c0.33,-0.15 0.55,-0.3 0.65,-0.45c0.12,-0.17 0.23,-0.39 0.35,-0.68c0.11,-0.28 0.17,-0.61 0.17,-1.01l0,-12.11c0,-0.8 -0.2,-1.38 -0.61,-1.74c-0.41,-0.36 -0.98,-0.62 -1.7,-0.79c-0.11,-0.01 -0.14,-0.17 -0.1,-0.47c0.05,-0.3 0.13,-0.44 0.24,-0.42c1.14,0.1 3.48,0.15 7.01,0.15c0.72,0 1.44,0 2.16,-0.01c0.73,-0.02 1.5,-0.04 2.33,-0.06c0.82,-0.04 1.47,-0.06 1.97,-0.08c0.31,0 0.5,0.1 0.56,0.29c0.06,0.2 0.05,0.46 -0.05,0.77l-0.65,2.55c-0.04,0.2 -0.18,0.29 -0.43,0.29c-0.24,0 -0.38,-0.09 -0.43,-0.29c-0.15,-0.49 -0.36,-0.88 -0.63,-1.16c-0.27,-0.28 -0.73,-0.51 -1.39,-0.69c-0.65,-0.17 -1.52,-0.26 -2.62,-0.26c-1,0 -1.69,0.14 -2.07,0.42c-0.36,0.27 -0.54,0.78 -0.54,1.53l0,4.72c0,0.32 0.07,0.55 0.22,0.67c0.14,0.12 0.36,0.17 0.67,0.17l0.58,0c2.62,0 4.39,-0.41 5.29,-1.25c0.13,-0.14 0.3,-0.18 0.49,-0.12c0.19,0.06 0.24,0.21 0.14,0.45l-1.58,3.42c-0.12,0.22 -0.26,0.33 -0.42,0.33c-0.16,0 -0.32,-0.1 -0.49,-0.3c-0.57,-0.82 -1.79,-1.23 -3.65,-1.23l-0.36,0c-0.31,0 -0.53,0.06 -0.67,0.19c-0.15,0.11 -0.22,0.33 -0.22,0.65l0,4.38c0,0.89 0.22,1.48 0.68,1.78c0.46,0.3 1.31,0.58 2.55,0.83c0.1,0.02 0.18,0.04 0.24,0.04c0.12,0.05 0.16,0.22 0.1,0.52c-0.05,0.29 -0.14,0.43 -0.26,0.41c-1.5,-0.1 -3.12,-0.16 -4.84,-0.16c-1.78,0 -3.17,0.06 -4.18,0.16zm0,0" id="svg_127"/>
    </g>
   </g>
  </g>
  <g fill="#000000" id="svg_128">
   <g id="svg_129" transform="translate(665.33 173.876)">
    <g id="svg_130">
     <path d="m32.27,-31.56c-2.83,0 -5.16,-0.93 -7,-2.8c-1.85,-1.86 -2.77,-4.21 -2.77,-7.03c0,-2.81 0.91,-5.19 2.72,-7.13c1.82,-1.94 4.19,-2.92 7.11,-2.92c2.82,0 5.15,0.93 7,2.78c1.84,1.86 2.76,4.2 2.76,7.02c0,2.82 -0.91,5.21 -2.73,7.16c-1.81,1.94 -4.18,2.92 -7.09,2.92zm1.03,-1.77c0.67,0 1.33,-0.11 1.95,-0.34c0.63,-0.23 1.25,-0.59 1.84,-1.08c0.61,-0.5 1.09,-1.21 1.46,-2.14c0.36,-0.94 0.54,-2.03 0.54,-3.28c0,-2.7 -0.79,-4.96 -2.36,-6.77c-1.56,-1.82 -3.37,-2.73 -5.43,-2.73c-0.68,0 -1.33,0.12 -1.96,0.34c-0.62,0.22 -1.23,0.58 -1.81,1.06c-0.58,0.5 -1.06,1.21 -1.42,2.14c-0.37,0.93 -0.55,2.01 -0.55,3.24c0,2.72 0.78,5 2.33,6.83c1.56,1.82 3.36,2.73 5.41,2.73zm0,0" id="svg_131"/>
    </g>
   </g>
  </g>
  <g fill="#000000" id="svg_132">
   <g id="svg_133" transform="translate(698.812 173.876)">
    <g id="svg_134">
     <path d="m41.78,-32.66c0.1,0 0.15,0.12 0.14,0.36c-0.01,0.23 -0.06,0.37 -0.14,0.41c-0.58,0.18 -1.18,0.28 -1.8,0.31c-0.61,0.03 -1.26,-0.11 -1.95,-0.42c-0.69,-0.32 -1.28,-0.81 -1.76,-1.47l-4.22,-5.41c-0.53,-0.68 -1.14,-1.14 -1.85,-1.37c-0.71,-0.24 -1.6,-0.37 -2.68,-0.39l0,5.3c0,0.87 0.25,1.46 0.75,1.78c0.5,0.31 1.27,0.54 2.32,0.67c0.05,0 0.08,0.08 0.08,0.23c0,0.15 -0.03,0.3 -0.08,0.44c-0.04,0.15 -0.1,0.22 -0.17,0.22l-8.06,0c-0.07,0 -0.14,-0.07 -0.19,-0.22c-0.05,-0.14 -0.08,-0.29 -0.08,-0.44c0,-0.15 0.04,-0.23 0.1,-0.23c0.75,-0.11 1.31,-0.35 1.7,-0.7c0.38,-0.36 0.58,-0.94 0.58,-1.75l0,-12.19c0,-0.81 -0.2,-1.41 -0.58,-1.78c-0.37,-0.39 -0.94,-0.68 -1.7,-0.88c-0.11,-0.04 -0.14,-0.2 -0.1,-0.48c0.05,-0.28 0.14,-0.41 0.27,-0.39c0.85,0.1 1.89,0.15 3.12,0.15c0.71,0 1.62,-0.02 2.74,-0.07c1.12,-0.06 1.88,-0.08 2.26,-0.08c2.07,0 3.72,0.43 4.94,1.29c1.23,0.86 1.85,2.1 1.85,3.72c0,1.47 -0.5,2.64 -1.47,3.49c-0.98,0.85 -2.09,1.32 -3.32,1.39l0,0.12c0.54,0 1.01,0.14 1.44,0.42c0.44,0.29 0.95,0.79 1.53,1.52l4.1,5.13c0.7,0.88 1.45,1.32 2.23,1.32zm-13.45,-9.17c2.1,0 3.58,-0.24 4.44,-0.73c0.86,-0.49 1.29,-1.41 1.29,-2.77c0,-1.39 -0.4,-2.47 -1.22,-3.23c-0.81,-0.76 -1.86,-1.14 -3.15,-1.14c-0.8,0 -1.36,0.16 -1.69,0.5c-0.32,0.33 -0.48,0.89 -0.48,1.67l0,5.7l0.81,0zm0,0" id="svg_135"/>
    </g>
   </g>
  </g>
  <g fill="#000000" id="svg_136">
   <g id="svg_137" transform="translate(731.017 173.876)">
    <g id="svg_138">
     <path d="m46.14,-32.89c0.07,0 0.11,0.08 0.11,0.23c0,0.15 -0.03,0.3 -0.08,0.44c-0.05,0.15 -0.1,0.22 -0.15,0.22l-6.88,0c-0.05,0 -0.11,-0.08 -0.17,-0.23c-0.06,-0.16 -0.08,-0.3 -0.08,-0.43c0,-0.12 0.03,-0.2 0.09,-0.23c1.32,-0.2 1.93,-1.02 1.86,-2.45l-0.48,-9.43l-4.59,9.27c-0.6,1.26 -0.95,2.18 -1.05,2.77c-0.06,0.32 -0.39,0.48 -0.99,0.48c-0.37,0 -0.64,-0.16 -0.81,-0.48l-6.36,-12.08l-0.4,9.47c-0.08,1.46 0.55,2.29 1.87,2.45c0.07,0 0.11,0.08 0.11,0.23c0,0.15 -0.03,0.3 -0.08,0.44c-0.05,0.15 -0.11,0.22 -0.18,0.22l-5.52,0c-0.07,0 -0.14,-0.07 -0.19,-0.22c-0.05,-0.14 -0.08,-0.29 -0.08,-0.44c0,-0.15 0.04,-0.23 0.1,-0.23c0.69,-0.07 1.24,-0.28 1.62,-0.63c0.39,-0.34 0.6,-0.95 0.66,-1.82l0.84,-15.64c0.02,-0.22 0.21,-0.33 0.55,-0.33c0.34,-0.01 0.58,0.1 0.7,0.33l7.91,14.82l7.33,-14.82c0.11,-0.23 0.34,-0.34 0.7,-0.33c0.35,0 0.54,0.12 0.55,0.36l0.87,15.61c0.03,0.87 0.24,1.48 0.61,1.82c0.38,0.35 0.92,0.56 1.61,0.63zm0,0" id="svg_139"/>
    </g>
   </g>
  </g>
 </g>
</svg>